<?xml version="1.0" encoding="UTF-8"?>
<svg xmlns="http://www.w3.org/2000/svg" xmlns:xlink="http://www.w3.org/1999/xlink" width="50px" height="50px" viewBox="0 0 50 50" version="1.1">
<g id="surface1">
<path style=" stroke:none;fill-rule:nonzero;fill:rgb(100%,58.823529%,63.921569%);fill-opacity:1;" d="M 32.8125 0.0976562 C 33.855469 0.0976562 34.898438 0.0976562 35.957031 0.128906 C 36.691406 0.492188 37.449219 0.769531 38.132812 1.175781 C 39.285156 1.863281 40.132812 2.875 40.703125 4.078125 C 41.222656 5.175781 41.414062 6.363281 41.300781 7.578125 C 41.214844 8.523438 41.003906 9.445312 40.472656 10.265625 C 40.234375 10.632812 40.011719 11.015625 39.746094 11.449219 C 42.398438 11.449219 44.964844 11.449219 47.53125 11.449219 C 47.53125 15.230469 47.53125 18.976562 47.53125 22.769531 C 47.007812 22.769531 46.511719 22.769531 45.996094 22.769531 C 45.996094 31.910156 45.996094 41.003906 45.996094 50.097656 C 32.09375 50.097656 18.191406 50.097656 4.246094 50.050781 C 4.199219 40.933594 4.199219 31.863281 4.199219 22.75 C 3.660156 22.75 3.164062 22.75 2.660156 22.75 C 2.660156 18.957031 2.660156 15.207031 2.660156 11.414062 C 5.257812 11.414062 7.828125 11.414062 10.449219 11.414062 C 10.359375 11.300781 10.308594 11.242188 10.261719 11.179688 C 10.210938 11.101562 10.164062 11.019531 10.109375 10.941406 C 8.917969 9.140625 8.511719 7.167969 9.132812 5.113281 C 9.878906 2.664062 11.488281 0.976562 14.027344 0.285156 C 14.085938 0.269531 14.117188 0.164062 14.160156 0.0976562 C 15.203125 0.0976562 16.246094 0.0976562 17.304688 0.128906 C 17.378906 0.203125 17.4375 0.273438 17.507812 0.285156 C 18.964844 0.59375 20.117188 1.410156 21.023438 2.539062 C 22.292969 4.117188 23.335938 5.855469 24.238281 7.671875 C 24.507812 8.21875 24.792969 8.753906 25.09375 9.34375 C 25.167969 9.210938 25.210938 9.148438 25.246094 9.082031 C 26.355469 6.835938 27.515625 4.628906 29.089844 2.660156 C 30.019531 1.5 31.152344 0.691406 32.582031 0.292969 C 32.683594 0.261719 32.777344 0.207031 32.871094 0.164062 C 32.851562 0.140625 32.832031 0.121094 32.8125 0.0976562 M 16.257812 47.167969 C 17.308594 47.167969 18.359375 47.167969 19.402344 47.167969 C 19.402344 38.996094 19.402344 30.886719 19.402344 22.785156 C 15.332031 22.785156 11.289062 22.785156 7.257812 22.785156 C 7.257812 30.925781 7.257812 39.035156 7.257812 47.167969 C 10.246094 47.167969 13.203125 47.167969 16.257812 47.167969 M 30.761719 24.464844 C 30.761719 32.023438 30.761719 39.582031 30.761719 47.140625 C 34.859375 47.140625 38.898438 47.140625 42.941406 47.140625 C 42.941406 39 42.941406 30.890625 42.941406 22.78125 C 38.871094 22.78125 34.832031 22.78125 30.761719 22.78125 C 30.761719 23.328125 30.761719 23.847656 30.761719 24.464844 M 22.363281 14.714844 C 22.363281 25.527344 22.363281 36.335938 22.363281 47.132812 C 24.226562 47.132812 26.023438 47.132812 27.796875 47.132812 C 27.796875 36.191406 27.796875 25.28125 27.796875 14.355469 C 26.058594 14.355469 24.351562 14.351562 22.644531 14.367188 C 22.550781 14.367188 22.457031 14.53125 22.363281 14.714844 M 19.433594 19.371094 C 19.433594 17.703125 19.433594 16.035156 19.433594 14.390625 C 14.769531 14.390625 10.175781 14.390625 5.601562 14.390625 C 5.601562 16.21875 5.601562 18.015625 5.601562 19.824219 C 10.125 19.824219 14.613281 19.820312 19.101562 19.832031 C 19.398438 19.832031 19.472656 19.722656 19.433594 19.371094 M 40.671875 19.824219 C 41.984375 19.824219 43.292969 19.824219 44.597656 19.824219 C 44.597656 17.96875 44.597656 16.171875 44.597656 14.386719 C 39.972656 14.386719 35.378906 14.386719 30.792969 14.386719 C 30.792969 16.210938 30.792969 18.007812 30.792969 19.824219 C 34.074219 19.824219 37.324219 19.824219 40.671875 19.824219 M 34.882812 3.125 C 34.574219 3.125 34.261719 3.101562 33.957031 3.128906 C 33.109375 3.207031 32.300781 3.472656 31.777344 4.148438 C 31.023438 5.121094 30.316406 6.140625 29.6875 7.199219 C 28.882812 8.558594 28.175781 9.976562 27.375 11.460938 C 27.6875 11.402344 27.882812 11.34375 28.078125 11.332031 C 29.496094 11.261719 30.914062 11.230469 32.328125 11.121094 C 33.292969 11.046875 34.261719 10.925781 35.207031 10.730469 C 37.117188 10.332031 38.058594 9.089844 38.261719 7.429688 C 38.523438 5.289062 37.152344 3.554688 34.882812 3.125 M 12.113281 5.652344 C 11.925781 6.367188 11.816406 7.082031 12.007812 7.820312 C 12.308594 8.980469 12.875 10.019531 14.03125 10.398438 C 15.222656 10.789062 16.5 10.925781 17.75 11.121094 C 18.367188 11.21875 19 11.199219 19.628906 11.234375 C 20.652344 11.289062 21.679688 11.347656 22.75 11.40625 C 21.5 8.953125 20.300781 6.535156 18.625 4.378906 C 17.871094 3.410156 15.957031 2.890625 14.863281 3.207031 C 13.574219 3.582031 12.667969 4.351562 12.113281 5.652344 Z M 12.113281 5.652344 "/>
<path style=" stroke:none;fill-rule:nonzero;fill:rgb(0%,0%,0%);fill-opacity:1;" d="M 14.113281 0.0976562 C 14.117188 0.164062 14.085938 0.269531 14.027344 0.285156 C 11.488281 0.976562 9.878906 2.664062 9.132812 5.113281 C 8.511719 7.167969 8.917969 9.140625 10.109375 10.941406 C 10.164062 11.019531 10.210938 11.101562 10.261719 11.179688 C 10.308594 11.242188 10.359375 11.300781 10.449219 11.414062 C 7.828125 11.414062 5.257812 11.414062 2.660156 11.414062 C 2.660156 15.207031 2.660156 18.957031 2.660156 22.75 C 3.164062 22.75 3.660156 22.75 4.199219 22.75 C 4.199219 31.863281 4.199219 40.933594 4.199219 50.050781 C 2.832031 50.097656 1.464844 50.097656 0.0976562 50.097656 C 0.0976562 33.441406 0.0976562 16.785156 0.0976562 0.0976562 C 4.753906 0.0976562 9.410156 0.0976562 14.113281 0.0976562 Z M 14.113281 0.0976562 "/>
<path style=" stroke:none;fill-rule:nonzero;fill:rgb(0%,0%,0%);fill-opacity:1;" d="M 46.042969 50.097656 C 45.996094 41.003906 45.996094 31.910156 45.996094 22.769531 C 46.511719 22.769531 47.007812 22.769531 47.53125 22.769531 C 47.53125 18.976562 47.53125 15.230469 47.53125 11.449219 C 44.964844 11.449219 42.398438 11.449219 39.746094 11.449219 C 40.011719 11.015625 40.234375 10.632812 40.472656 10.265625 C 41.003906 9.445312 41.214844 8.523438 41.300781 7.578125 C 41.414062 6.363281 41.222656 5.175781 40.703125 4.078125 C 40.132812 2.875 39.285156 1.863281 38.132812 1.175781 C 37.449219 0.769531 36.691406 0.492188 36.003906 0.128906 C 40.71875 0.0976562 45.402344 0.0976562 50.09375 0.0976562 C 50.09375 16.765625 50.09375 33.429688 50.09375 50.097656 C 48.753906 50.097656 47.421875 50.097656 46.042969 50.097656 Z M 46.042969 50.097656 "/>
<path style=" stroke:none;fill-rule:nonzero;fill:rgb(0%,0%,0%);fill-opacity:1;" d="M 32.765625 0.0976562 C 32.832031 0.121094 32.851562 0.140625 32.871094 0.164062 C 32.777344 0.207031 32.683594 0.261719 32.582031 0.292969 C 31.152344 0.691406 30.019531 1.5 29.089844 2.660156 C 27.515625 4.628906 26.355469 6.835938 25.246094 9.082031 C 25.210938 9.148438 25.167969 9.210938 25.09375 9.34375 C 24.792969 8.753906 24.507812 8.21875 24.238281 7.671875 C 23.335938 5.855469 22.292969 4.117188 21.023438 2.539062 C 20.117188 1.410156 18.964844 0.59375 17.507812 0.285156 C 17.4375 0.273438 17.378906 0.203125 17.351562 0.128906 C 22.496094 0.0976562 27.609375 0.0976562 32.765625 0.0976562 Z M 32.765625 0.0976562 "/>
<path style=" stroke:none;fill-rule:nonzero;fill:rgb(0%,0%,0%);fill-opacity:1;" d="M 16.210938 47.167969 C 13.203125 47.167969 10.246094 47.167969 7.257812 47.167969 C 7.257812 39.035156 7.257812 30.925781 7.257812 22.785156 C 11.289062 22.785156 15.332031 22.785156 19.402344 22.785156 C 19.402344 30.886719 19.402344 38.996094 19.402344 47.167969 C 18.359375 47.167969 17.308594 47.167969 16.210938 47.167969 Z M 16.210938 47.167969 "/>
<path style=" stroke:none;fill-rule:nonzero;fill:rgb(0%,0%,0%);fill-opacity:1;" d="M 30.761719 24.414062 C 30.761719 23.847656 30.761719 23.328125 30.761719 22.78125 C 34.832031 22.78125 38.871094 22.78125 42.941406 22.78125 C 42.941406 30.890625 42.941406 39 42.941406 47.140625 C 38.898438 47.140625 34.859375 47.140625 30.761719 47.140625 C 30.761719 39.582031 30.761719 32.023438 30.761719 24.414062 Z M 30.761719 24.414062 "/>
<path style=" stroke:none;fill-rule:nonzero;fill:rgb(0%,0%,0%);fill-opacity:1;" d="M 22.363281 14.667969 C 22.457031 14.53125 22.550781 14.367188 22.644531 14.367188 C 24.351562 14.351562 26.058594 14.355469 27.796875 14.355469 C 27.796875 25.28125 27.796875 36.191406 27.796875 47.132812 C 26.023438 47.132812 24.226562 47.132812 22.363281 47.132812 C 22.363281 36.335938 22.363281 25.527344 22.363281 14.667969 Z M 22.363281 14.667969 "/>
<path style=" stroke:none;fill-rule:nonzero;fill:rgb(0%,0%,0%);fill-opacity:1;" d="M 19.433594 19.417969 C 19.472656 19.722656 19.398438 19.832031 19.101562 19.832031 C 14.613281 19.820312 10.125 19.824219 5.601562 19.824219 C 5.601562 18.015625 5.601562 16.21875 5.601562 14.390625 C 10.175781 14.390625 14.769531 14.390625 19.433594 14.390625 C 19.433594 16.035156 19.433594 17.703125 19.433594 19.417969 Z M 19.433594 19.417969 "/>
<path style=" stroke:none;fill-rule:nonzero;fill:rgb(0%,0%,0%);fill-opacity:1;" d="M 40.625 19.824219 C 37.324219 19.824219 34.074219 19.824219 30.792969 19.824219 C 30.792969 18.007812 30.792969 16.210938 30.792969 14.386719 C 35.378906 14.386719 39.972656 14.386719 44.597656 14.386719 C 44.597656 16.171875 44.597656 17.96875 44.597656 19.824219 C 43.292969 19.824219 41.984375 19.824219 40.625 19.824219 Z M 40.625 19.824219 "/>
<path style=" stroke:none;fill-rule:nonzero;fill:rgb(0%,0%,0%);fill-opacity:1;" d="M 34.925781 3.125 C 37.152344 3.554688 38.523438 5.289062 38.261719 7.429688 C 38.058594 9.089844 37.117188 10.332031 35.207031 10.730469 C 34.261719 10.925781 33.292969 11.046875 32.328125 11.121094 C 30.914062 11.230469 29.496094 11.261719 28.078125 11.332031 C 27.882812 11.34375 27.6875 11.402344 27.375 11.460938 C 28.175781 9.976562 28.882812 8.558594 29.6875 7.199219 C 30.316406 6.140625 31.023438 5.121094 31.777344 4.148438 C 32.300781 3.472656 33.109375 3.207031 33.957031 3.128906 C 34.261719 3.101562 34.574219 3.125 34.925781 3.125 Z M 34.925781 3.125 "/>
<path style=" stroke:none;fill-rule:nonzero;fill:rgb(0%,0%,0%);fill-opacity:1;" d="M 12.128906 5.617188 C 12.667969 4.351562 13.574219 3.582031 14.863281 3.207031 C 15.957031 2.890625 17.871094 3.410156 18.625 4.378906 C 20.300781 6.535156 21.5 8.953125 22.75 11.40625 C 21.679688 11.347656 20.652344 11.289062 19.628906 11.234375 C 19 11.199219 18.367188 11.21875 17.75 11.121094 C 16.5 10.925781 15.222656 10.789062 14.03125 10.398438 C 12.875 10.019531 12.308594 8.980469 12.007812 7.820312 C 11.816406 7.082031 11.925781 6.367188 12.128906 5.617188 Z M 12.128906 5.617188 "/>
</g>
</svg>
