<?xml version="1.0" encoding="UTF-8"?>
<svg xmlns="http://www.w3.org/2000/svg" xmlns:xlink="http://www.w3.org/1999/xlink" width="50px" height="50px" viewBox="0 0 50 50" version="1.1">
<g id="surface1">
<path style=" stroke:none;fill-rule:nonzero;fill:rgb(100%,58.823529%,63.921569%);fill-opacity:1;" d="M 0.0976562 17.773438 C 0.0976562 17.507812 0.0976562 17.246094 0.121094 16.96875 C 0.335938 16.773438 0.503906 16.554688 0.71875 16.40625 C 2.152344 15.417969 3.589844 14.433594 5.046875 13.480469 C 5.328125 13.296875 5.375 13.109375 5.375 12.816406 C 5.367188 10.214844 5.371094 7.613281 5.371094 5.011719 C 5.371094 4.351562 5.714844 4.003906 6.375 4.003906 C 8.308594 4.003906 10.242188 4.003906 12.179688 4.003906 C 12.789062 4.003906 13.183594 4.398438 13.183594 5.007812 C 13.183594 5.957031 13.183594 6.90625 13.183594 7.933594 C 14.226562 7.214844 15.195312 6.53125 16.175781 5.867188 C 18.691406 4.167969 21.214844 2.480469 23.726562 0.777344 C 24.011719 0.582031 24.25 0.324219 24.511719 0.0976562 C 24.871094 0.0976562 25.234375 0.0976562 25.605469 0.121094 C 25.894531 0.359375 26.164062 0.582031 26.449219 0.777344 C 29.078125 2.570312 31.707031 4.359375 34.339844 6.144531 C 36.980469 7.941406 39.628906 9.730469 42.273438 11.519531 C 44.539062 13.054688 46.808594 14.582031 49.074219 16.121094 C 49.429688 16.359375 49.757812 16.636719 50.097656 16.894531 C 50.097656 17.160156 50.097656 17.421875 50.070312 17.699219 C 50.019531 17.726562 49.984375 17.742188 49.96875 17.765625 C 48.796875 19.515625 47.632812 21.265625 46.453125 23.007812 C 46.082031 23.5625 45.40625 23.667969 44.820312 23.285156 C 44.574219 23.125 44.332031 22.953125 44.070312 22.773438 C 44.070312 29.683594 44.070312 36.554688 44.070312 43.457031 C 44.789062 43.457031 45.488281 43.457031 46.183594 43.457031 C 46.820312 43.457031 47.261719 43.890625 47.265625 44.527344 C 47.269531 45.761719 47.261719 47 47.265625 48.234375 C 47.269531 48.890625 47.386719 49.582031 46.722656 50.035156 C 46.742188 50.054688 46.757812 50.078125 46.777344 50.097656 C 32.355469 50.097656 17.933594 50.097656 3.496094 50.074219 C 3.296875 49.757812 2.964844 49.472656 2.953125 49.179688 C 2.902344 47.585938 2.921875 45.992188 2.933594 44.398438 C 2.9375 43.910156 3.445312 43.457031 3.945312 43.457031 C 4.671875 43.457031 5.398438 43.457031 6.121094 43.457031 C 6.121094 36.535156 6.121094 29.671875 6.121094 22.773438 C 5.855469 22.957031 5.621094 23.117188 5.386719 23.273438 C 4.777344 23.671875 4.109375 23.5625 3.71875 22.980469 C 2.570312 21.257812 1.425781 19.53125 0.273438 17.8125 C 0.25 17.777344 0.15625 17.785156 0.0976562 17.773438 M 16.554688 45.410156 C 12.703125 45.410156 8.851562 45.410156 5.011719 45.410156 C 5.011719 46.355469 5.011719 47.242188 5.011719 48.109375 C 18.429688 48.109375 31.816406 48.109375 45.179688 48.109375 C 45.179688 47.191406 45.179688 46.304688 45.179688 45.410156 C 42.472656 45.410156 39.804688 45.410156 37.136719 45.410156 C 36.503906 45.410156 36.136719 45.054688 36.132812 44.449219 C 36.128906 43.804688 36.484375 43.457031 37.152344 43.457031 C 38.195312 43.457031 39.238281 43.457031 40.277344 43.457031 C 40.875 43.457031 41.46875 43.457031 42.089844 43.457031 C 42.089844 43.222656 42.089844 43.046875 42.089844 42.867188 C 42.089844 36.210938 42.070312 29.554688 42.113281 22.902344 C 42.117188 21.871094 42.019531 21.054688 40.941406 20.664062 C 40.828125 20.625 40.753906 20.488281 40.648438 20.414062 C 38.214844 18.757812 35.785156 17.09375 33.34375 15.441406 C 30.59375 13.578125 27.835938 11.726562 25.074219 9.863281 C 23.847656 10.707031 22.625 11.558594 21.398438 12.398438 C 18.964844 14.058594 16.535156 15.71875 14.097656 17.375 C 12.226562 18.644531 10.347656 19.910156 8.464844 21.164062 C 8.195312 21.34375 8.097656 21.535156 8.097656 21.859375 C 8.109375 28.890625 8.105469 35.921875 8.105469 42.953125 C 8.105469 43.109375 8.105469 43.265625 8.105469 43.429688 C 9.039062 43.429688 9.925781 43.429688 10.839844 43.429688 C 10.839844 43.226562 10.839844 43.050781 10.839844 42.875 C 10.839844 39.292969 10.835938 35.710938 10.84375 32.132812 C 10.84375 31.207031 11.140625 30.351562 11.605469 29.570312 C 12.398438 28.226562 13.496094 27.238281 14.96875 26.644531 C 16.101562 26.1875 17.261719 26.242188 18.425781 26.3125 C 18.78125 26.332031 19.132812 26.460938 19.472656 26.582031 C 20.636719 26.988281 21.578125 27.730469 22.351562 28.664062 C 23.167969 29.648438 23.710938 30.785156 23.722656 32.082031 C 23.75 35.695312 23.730469 39.308594 23.730469 42.921875 C 23.730469 43.09375 23.730469 43.265625 23.730469 43.457031 C 25.320312 43.457031 26.847656 43.457031 28.375 43.457031 C 28.945312 43.457031 29.296875 43.832031 29.296875 44.4375 C 29.296875 45.039062 28.945312 45.410156 28.367188 45.410156 C 24.460938 45.410156 20.554688 45.410156 16.554688 45.410156 M 18.257812 12.066406 C 18.328125 11.996094 18.386719 11.914062 18.464844 11.859375 C 20.472656 10.5 22.480469 9.144531 24.488281 7.789062 C 24.886719 7.523438 25.308594 7.519531 25.699219 7.789062 C 26.984375 8.660156 28.25 9.558594 29.535156 10.429688 C 32.011719 12.105469 34.496094 13.773438 36.972656 15.449219 C 38.921875 16.773438 40.871094 18.105469 42.820312 19.429688 C 43.636719 19.988281 44.453125 20.542969 45.269531 21.097656 C 46.074219 19.902344 46.851562 18.753906 47.625 17.609375 C 45.226562 15.96875 42.839844 14.332031 40.445312 12.699219 C 37.816406 10.90625 35.183594 9.113281 32.550781 7.328125 C 30.175781 5.722656 27.796875 4.128906 25.429688 2.519531 C 25.175781 2.347656 25 2.359375 24.757812 2.527344 C 23.902344 3.128906 23.03125 3.707031 22.167969 4.296875 C 19.644531 6.019531 17.121094 7.746094 14.59375 9.460938 C 12.011719 11.210938 9.421875 12.949219 6.839844 14.695312 C 5.410156 15.660156 3.988281 16.632812 2.5625 17.601562 C 3.351562 18.769531 4.136719 19.925781 4.9375 21.109375 C 6.210938 20.226562 7.449219 19.347656 8.710938 18.492188 C 11.867188 16.359375 15.035156 14.234375 18.257812 12.066406 M 12.792969 34.035156 C 12.792969 37.167969 12.792969 40.296875 12.792969 43.429688 C 15.816406 43.429688 18.785156 43.429688 21.753906 43.429688 C 21.765625 43.355469 21.777344 43.308594 21.777344 43.261719 C 21.777344 39.863281 21.800781 36.460938 21.757812 33.0625 C 21.75 32.335938 21.636719 31.542969 21.328125 30.894531 C 20.523438 29.21875 19.1875 28.289062 17.238281 28.308594 C 15.378906 28.328125 14.109375 29.207031 13.28125 30.804688 C 12.773438 31.785156 12.792969 32.867188 12.792969 34.035156 M 7.324219 10.882812 C 7.324219 11.207031 7.324219 11.527344 7.324219 11.90625 C 8.585938 11.046875 9.808594 10.210938 11.027344 9.375 C 11.078125 9.335938 11.128906 9.25 11.128906 9.1875 C 11.132812 8.121094 11.132812 7.054688 11.132812 5.984375 C 9.835938 5.984375 8.59375 5.984375 7.324219 5.984375 C 7.324219 7.605469 7.324219 9.195312 7.324219 10.882812 Z M 7.324219 10.882812 "/>
<path style=" stroke:none;fill-rule:nonzero;fill:rgb(0%,0%,0%);fill-opacity:1;" d="M 50.097656 16.847656 C 49.757812 16.636719 49.429688 16.359375 49.074219 16.121094 C 46.808594 14.582031 44.539062 13.054688 42.273438 11.519531 C 39.628906 9.730469 36.980469 7.941406 34.339844 6.144531 C 31.707031 4.359375 29.078125 2.570312 26.449219 0.777344 C 26.164062 0.582031 25.894531 0.359375 25.652344 0.121094 C 31.511719 0.0976562 37.339844 0.0976562 43.25 0.121094 C 42.964844 0.476562 42.820312 0.898438 42.769531 1.375 C 42.714844 1.84375 42.300781 2.253906 41.847656 2.34375 C 41.660156 2.378906 41.472656 2.402344 41.285156 2.441406 C 40.796875 2.550781 40.53125 2.894531 40.527344 3.402344 C 40.523438 3.941406 40.785156 4.277344 41.300781 4.394531 C 41.53125 4.445312 41.765625 4.480469 41.996094 4.546875 C 42.652344 4.726562 42.726562 5.308594 42.863281 5.84375 C 43.042969 6.519531 43.273438 6.738281 43.839844 6.738281 C 44.417969 6.738281 44.695312 6.523438 44.820312 5.855469 C 44.96875 5.0625 45.3125 4.558594 46.191406 4.421875 C 47.003906 4.296875 47.214844 3.957031 47.167969 3.269531 C 47.132812 2.769531 46.746094 2.453125 46.011719 2.347656 C 45.597656 2.285156 45.226562 2.164062 45.058594 1.746094 C 44.839844 1.199219 44.640625 0.648438 44.433594 0.0976562 C 46.316406 0.0976562 48.203125 0.0976562 50.097656 0.0976562 C 50.097656 5.667969 50.097656 11.234375 50.097656 16.847656 Z M 50.097656 16.847656 "/>
<path style=" stroke:none;fill-rule:nonzero;fill:rgb(0%,0%,0%);fill-opacity:1;" d="M 24.464844 0.0976562 C 24.25 0.324219 24.011719 0.582031 23.726562 0.777344 C 21.214844 2.480469 18.691406 4.167969 16.175781 5.867188 C 15.195312 6.53125 14.226562 7.214844 13.183594 7.933594 C 13.183594 6.90625 13.183594 5.957031 13.183594 5.007812 C 13.183594 4.398438 12.789062 4.003906 12.179688 4.003906 C 10.242188 4.003906 8.308594 4.003906 6.375 4.003906 C 5.714844 4.003906 5.371094 4.351562 5.371094 5.011719 C 5.371094 7.613281 5.367188 10.214844 5.375 12.816406 C 5.375 13.109375 5.328125 13.296875 5.046875 13.480469 C 3.589844 14.433594 2.152344 15.417969 0.71875 16.40625 C 0.503906 16.554688 0.335938 16.773438 0.121094 16.925781 C 0.0976562 11.300781 0.0976562 5.707031 0.0976562 0.0976562 C 8.207031 0.0976562 16.3125 0.0976562 24.464844 0.0976562 Z M 24.464844 0.0976562 "/>
<path style=" stroke:none;fill-rule:nonzero;fill:rgb(0%,0%,0%);fill-opacity:1;" d="M 0.0976562 17.820312 C 0.15625 17.785156 0.25 17.777344 0.273438 17.8125 C 1.425781 19.53125 2.570312 21.257812 3.71875 22.980469 C 4.109375 23.5625 4.777344 23.671875 5.386719 23.273438 C 5.621094 23.117188 5.855469 22.957031 6.121094 22.773438 C 6.121094 29.671875 6.121094 36.535156 6.121094 43.457031 C 5.398438 43.457031 4.671875 43.457031 3.945312 43.457031 C 3.445312 43.457031 2.9375 43.910156 2.933594 44.398438 C 2.921875 45.992188 2.902344 47.585938 2.953125 49.179688 C 2.964844 49.472656 3.296875 49.757812 3.449219 50.074219 C 2.3125 50.097656 1.207031 50.097656 0.0976562 50.097656 C 0.0976562 39.351562 0.0976562 28.609375 0.0976562 17.820312 Z M 0.0976562 17.820312 "/>
<path style=" stroke:none;fill-rule:nonzero;fill:rgb(0%,0%,0%);fill-opacity:1;" d="M 46.824219 50.097656 C 46.757812 50.078125 46.742188 50.054688 46.722656 50.035156 C 47.386719 49.582031 47.269531 48.890625 47.265625 48.234375 C 47.261719 47 47.269531 45.761719 47.265625 44.527344 C 47.261719 43.890625 46.820312 43.457031 46.183594 43.457031 C 45.488281 43.457031 44.789062 43.457031 44.070312 43.457031 C 44.070312 36.554688 44.070312 29.683594 44.070312 22.773438 C 44.332031 22.953125 44.574219 23.125 44.820312 23.285156 C 45.40625 23.667969 46.082031 23.5625 46.453125 23.007812 C 47.632812 21.265625 48.796875 19.515625 49.96875 17.765625 C 49.984375 17.742188 50.019531 17.726562 50.070312 17.742188 C 50.097656 28.546875 50.097656 39.324219 50.097656 50.097656 C 49.015625 50.097656 47.941406 50.097656 46.824219 50.097656 Z M 46.824219 50.097656 "/>
<path style=" stroke:none;fill-rule:nonzero;fill:rgb(100%,58.823529%,63.921569%);fill-opacity:1;" d="M 44.386719 0.0976562 C 44.640625 0.648438 44.839844 1.199219 45.058594 1.746094 C 45.226562 2.164062 45.597656 2.285156 46.011719 2.347656 C 46.746094 2.453125 47.132812 2.769531 47.167969 3.269531 C 47.214844 3.957031 47.003906 4.296875 46.191406 4.421875 C 45.3125 4.558594 44.96875 5.0625 44.820312 5.855469 C 44.695312 6.523438 44.417969 6.738281 43.839844 6.738281 C 43.273438 6.738281 43.042969 6.519531 42.863281 5.84375 C 42.726562 5.308594 42.652344 4.726562 41.996094 4.546875 C 41.765625 4.480469 41.53125 4.445312 41.300781 4.394531 C 40.785156 4.277344 40.523438 3.941406 40.527344 3.402344 C 40.53125 2.894531 40.796875 2.550781 41.285156 2.441406 C 41.472656 2.402344 41.660156 2.378906 41.847656 2.34375 C 42.300781 2.253906 42.714844 1.84375 42.769531 1.375 C 42.820312 0.898438 42.964844 0.476562 43.292969 0.121094 C 43.621094 0.0976562 43.984375 0.0976562 44.386719 0.0976562 Z M 44.386719 0.0976562 "/>
<path style=" stroke:none;fill-rule:nonzero;fill:rgb(0%,0%,0%);fill-opacity:1;" d="M 16.601562 45.410156 C 20.554688 45.410156 24.460938 45.410156 28.367188 45.410156 C 28.945312 45.410156 29.296875 45.039062 29.296875 44.4375 C 29.296875 43.832031 28.945312 43.457031 28.375 43.457031 C 26.847656 43.457031 25.320312 43.457031 23.730469 43.457031 C 23.730469 43.265625 23.730469 43.09375 23.730469 42.921875 C 23.730469 39.308594 23.75 35.695312 23.722656 32.082031 C 23.710938 30.785156 23.167969 29.648438 22.351562 28.664062 C 21.578125 27.730469 20.636719 26.988281 19.472656 26.582031 C 19.132812 26.460938 18.78125 26.332031 18.425781 26.3125 C 17.261719 26.242188 16.101562 26.1875 14.96875 26.644531 C 13.496094 27.238281 12.398438 28.226562 11.605469 29.570312 C 11.140625 30.351562 10.84375 31.207031 10.84375 32.132812 C 10.835938 35.710938 10.839844 39.292969 10.839844 42.875 C 10.839844 43.050781 10.839844 43.226562 10.839844 43.429688 C 9.925781 43.429688 9.039062 43.429688 8.105469 43.429688 C 8.105469 43.265625 8.105469 43.109375 8.105469 42.953125 C 8.105469 35.921875 8.109375 28.890625 8.097656 21.859375 C 8.097656 21.535156 8.195312 21.34375 8.464844 21.164062 C 10.347656 19.910156 12.226562 18.644531 14.097656 17.375 C 16.535156 15.71875 18.964844 14.058594 21.398438 12.398438 C 22.625 11.558594 23.847656 10.707031 25.074219 9.863281 C 27.835938 11.726562 30.59375 13.578125 33.34375 15.441406 C 35.785156 17.09375 38.214844 18.757812 40.648438 20.414062 C 40.753906 20.488281 40.828125 20.625 40.941406 20.664062 C 42.019531 21.054688 42.117188 21.871094 42.113281 22.902344 C 42.070312 29.554688 42.089844 36.210938 42.089844 42.867188 C 42.089844 43.046875 42.089844 43.222656 42.089844 43.457031 C 41.46875 43.457031 40.875 43.457031 40.277344 43.457031 C 39.238281 43.457031 38.195312 43.457031 37.152344 43.457031 C 36.484375 43.457031 36.128906 43.804688 36.132812 44.449219 C 36.136719 45.054688 36.503906 45.410156 37.136719 45.410156 C 39.804688 45.410156 42.472656 45.410156 45.179688 45.410156 C 45.179688 46.304688 45.179688 47.191406 45.179688 48.109375 C 31.816406 48.109375 18.429688 48.109375 5.011719 48.109375 C 5.011719 47.242188 5.011719 46.355469 5.011719 45.410156 C 8.851562 45.410156 12.703125 45.410156 16.601562 45.410156 M 26.074219 33.25 C 26.074219 34.066406 26.082031 34.878906 26.070312 35.691406 C 26.066406 36.175781 26.109375 36.621094 26.34375 37.082031 C 26.65625 37.703125 27.769531 38.597656 28.519531 38.589844 C 31.203125 38.550781 33.886719 38.582031 36.570312 38.566406 C 36.976562 38.5625 37.402344 38.5 37.78125 38.363281 C 38.445312 38.121094 39.386719 37.023438 39.371094 36.164062 C 39.328125 34 39.335938 31.835938 39.363281 29.671875 C 39.378906 28.527344 38.089844 27.226562 36.929688 27.238281 C 34.210938 27.261719 31.496094 27.246094 28.777344 27.246094 C 27.199219 27.246094 26.074219 28.363281 26.074219 29.933594 C 26.074219 31.007812 26.074219 32.082031 26.074219 33.25 M 24.90625 19.714844 C 25.066406 20.109375 25.316406 20.371094 25.777344 20.421875 C 26.050781 20.453125 26.332031 20.550781 26.574219 20.679688 C 27.097656 20.957031 27.148438 21.496094 27.25 22.007812 C 27.34375 22.484375 27.714844 22.753906 28.21875 22.753906 C 28.726562 22.753906 29.085938 22.488281 29.195312 22.019531 C 29.253906 21.773438 29.289062 21.523438 29.355469 21.28125 C 29.542969 20.59375 30.15625 20.546875 30.699219 20.414062 C 31.316406 20.261719 31.542969 19.996094 31.542969 19.390625 C 31.542969 18.863281 31.300781 18.574219 30.722656 18.457031 C 29.351562 18.1875 29.382812 17.753906 29.203125 16.914062 C 29.097656 16.414062 28.769531 16.117188 28.246094 16.113281 C 27.6875 16.109375 27.324219 16.394531 27.246094 16.914062 C 27.125 17.710938 26.820312 18.265625 25.902344 18.414062 C 25.011719 18.558594 24.816406 18.890625 24.90625 19.714844 M 32.84375 45.410156 C 33.304688 45.378906 33.703125 44.980469 33.765625 44.492188 C 33.804688 44.207031 33.394531 43.507812 33.117188 43.472656 C 32.707031 43.425781 32.277344 43.378906 31.960938 43.769531 C 31.6875 44.101562 31.660156 44.464844 31.808594 44.839844 C 31.976562 45.261719 32.308594 45.449219 32.84375 45.410156 Z M 32.84375 45.410156 "/>
<path style=" stroke:none;fill-rule:nonzero;fill:rgb(0%,0%,0%);fill-opacity:1;" d="M 18.226562 12.085938 C 15.035156 14.234375 11.867188 16.359375 8.710938 18.492188 C 7.449219 19.347656 6.210938 20.226562 4.9375 21.109375 C 4.136719 19.925781 3.351562 18.769531 2.5625 17.601562 C 3.988281 16.632812 5.410156 15.660156 6.839844 14.695312 C 9.421875 12.949219 12.011719 11.210938 14.59375 9.460938 C 17.121094 7.746094 19.644531 6.019531 22.167969 4.296875 C 23.03125 3.707031 23.902344 3.128906 24.757812 2.527344 C 25 2.359375 25.175781 2.347656 25.429688 2.519531 C 27.796875 4.128906 30.175781 5.722656 32.550781 7.328125 C 35.183594 9.113281 37.816406 10.90625 40.445312 12.699219 C 42.839844 14.332031 45.226562 15.96875 47.625 17.609375 C 46.851562 18.753906 46.074219 19.902344 45.269531 21.097656 C 44.453125 20.542969 43.636719 19.988281 42.820312 19.429688 C 40.871094 18.105469 38.921875 16.773438 36.972656 15.449219 C 34.496094 13.773438 32.011719 12.105469 29.535156 10.429688 C 28.25 9.558594 26.984375 8.660156 25.699219 7.789062 C 25.308594 7.519531 24.886719 7.523438 24.488281 7.789062 C 22.480469 9.144531 20.472656 10.5 18.464844 11.859375 C 18.386719 11.914062 18.328125 11.996094 18.226562 12.085938 Z M 18.226562 12.085938 "/>
<path style=" stroke:none;fill-rule:nonzero;fill:rgb(0%,0%,0%);fill-opacity:1;" d="M 12.792969 33.984375 C 12.792969 32.867188 12.773438 31.785156 13.28125 30.804688 C 14.109375 29.207031 15.378906 28.328125 17.238281 28.308594 C 19.1875 28.289062 20.523438 29.21875 21.328125 30.894531 C 21.636719 31.542969 21.75 32.335938 21.757812 33.0625 C 21.800781 36.460938 21.777344 39.863281 21.777344 43.261719 C 21.777344 43.308594 21.765625 43.355469 21.753906 43.429688 C 18.785156 43.429688 15.816406 43.429688 12.792969 43.429688 C 12.792969 40.296875 12.792969 37.167969 12.792969 33.984375 M 19.164062 35.332031 C 18.773438 35.199219 18.386719 35.175781 18.039062 35.433594 C 17.699219 35.6875 17.535156 36.222656 17.714844 36.601562 C 17.917969 37.03125 18.160156 37.269531 18.886719 37.207031 C 19.367188 37.164062 19.621094 36.824219 19.707031 36.421875 C 19.800781 36 19.648438 35.609375 19.164062 35.332031 Z M 19.164062 35.332031 "/>
<path style=" stroke:none;fill-rule:nonzero;fill:rgb(0%,0%,0%);fill-opacity:1;" d="M 7.324219 10.835938 C 7.324219 9.195312 7.324219 7.605469 7.324219 5.984375 C 8.59375 5.984375 9.835938 5.984375 11.132812 5.984375 C 11.132812 7.054688 11.132812 8.121094 11.128906 9.1875 C 11.128906 9.25 11.078125 9.335938 11.027344 9.375 C 9.808594 10.210938 8.585938 11.046875 7.324219 11.90625 C 7.324219 11.527344 7.324219 11.207031 7.324219 10.835938 Z M 7.324219 10.835938 "/>
<path style=" stroke:none;fill-rule:nonzero;fill:rgb(100%,58.823529%,63.921569%);fill-opacity:1;" d="M 26.074219 33.203125 C 26.074219 32.082031 26.074219 31.007812 26.074219 29.933594 C 26.074219 28.363281 27.199219 27.246094 28.777344 27.246094 C 31.496094 27.246094 34.210938 27.261719 36.929688 27.238281 C 38.089844 27.226562 39.378906 28.527344 39.363281 29.671875 C 39.335938 31.835938 39.328125 34 39.371094 36.164062 C 39.386719 37.023438 38.445312 38.121094 37.78125 38.363281 C 37.402344 38.5 36.976562 38.5625 36.570312 38.566406 C 33.886719 38.582031 31.203125 38.550781 28.519531 38.589844 C 27.769531 38.597656 26.65625 37.703125 26.34375 37.082031 C 26.109375 36.621094 26.066406 36.175781 26.070312 35.691406 C 26.082031 34.878906 26.074219 34.066406 26.074219 33.203125 M 30.320312 36.621094 C 30.785156 36.621094 31.25 36.621094 31.707031 36.621094 C 31.707031 35.675781 31.707031 34.789062 31.707031 33.921875 C 30.460938 33.921875 29.25 33.921875 28.027344 33.921875 C 28.027344 34.492188 28.011719 35.027344 28.03125 35.5625 C 28.054688 36.324219 28.304688 36.578125 29.054688 36.617188 C 29.445312 36.636719 29.835938 36.621094 30.320312 36.621094 M 34.71875 36.621094 C 35.257812 36.621094 35.792969 36.632812 36.332031 36.617188 C 37.066406 36.597656 37.324219 36.40625 37.390625 35.703125 C 37.445312 35.113281 37.398438 34.511719 37.398438 33.914062 C 36.171875 33.914062 34.992188 33.914062 33.820312 33.914062 C 33.820312 34.828125 33.820312 35.714844 33.820312 36.621094 C 34.105469 36.621094 34.367188 36.621094 34.71875 36.621094 M 31.730469 31.761719 C 31.730469 30.921875 31.730469 30.078125 31.730469 29.199219 C 30.785156 29.199219 29.878906 29.167969 28.972656 29.21875 C 28.691406 29.238281 28.222656 29.449219 28.183594 29.644531 C 28.035156 30.351562 28.035156 31.09375 27.980469 31.828125 C 29.289062 31.828125 30.476562 31.828125 31.730469 31.761719 M 33.789062 30.035156 C 33.789062 30.628906 33.789062 31.222656 33.789062 31.800781 C 35.03125 31.800781 36.210938 31.800781 37.402344 31.800781 C 37.402344 31.265625 37.441406 30.757812 37.390625 30.257812 C 37.34375 29.832031 37.382812 29.300781 36.691406 29.285156 C 35.730469 29.261719 34.773438 29.203125 33.789062 29.160156 C 33.789062 29.484375 33.789062 29.710938 33.789062 30.035156 Z M 33.789062 30.035156 "/>
<path style=" stroke:none;fill-rule:nonzero;fill:rgb(100%,58.823529%,63.921569%);fill-opacity:1;" d="M 24.902344 19.675781 C 24.816406 18.890625 25.011719 18.558594 25.902344 18.414062 C 26.820312 18.265625 27.125 17.710938 27.246094 16.914062 C 27.324219 16.394531 27.6875 16.109375 28.246094 16.113281 C 28.769531 16.117188 29.097656 16.414062 29.203125 16.914062 C 29.382812 17.753906 29.351562 18.1875 30.722656 18.457031 C 31.300781 18.574219 31.542969 18.863281 31.542969 19.390625 C 31.542969 19.996094 31.316406 20.261719 30.699219 20.414062 C 30.15625 20.546875 29.542969 20.59375 29.355469 21.28125 C 29.289062 21.523438 29.253906 21.773438 29.195312 22.019531 C 29.085938 22.488281 28.726562 22.753906 28.21875 22.753906 C 27.714844 22.753906 27.34375 22.484375 27.25 22.007812 C 27.148438 21.496094 27.097656 20.957031 26.574219 20.679688 C 26.332031 20.550781 26.050781 20.453125 25.777344 20.421875 C 25.316406 20.371094 25.066406 20.109375 24.902344 19.675781 Z M 24.902344 19.675781 "/>
<path style=" stroke:none;fill-rule:nonzero;fill:rgb(100%,58.823529%,63.921569%);fill-opacity:1;" d="M 32.800781 45.410156 C 32.308594 45.449219 31.976562 45.261719 31.808594 44.839844 C 31.660156 44.464844 31.6875 44.101562 31.960938 43.769531 C 32.277344 43.378906 32.707031 43.425781 33.117188 43.472656 C 33.394531 43.507812 33.804688 44.207031 33.765625 44.492188 C 33.703125 44.980469 33.304688 45.378906 32.800781 45.410156 Z M 32.800781 45.410156 "/>
<path style=" stroke:none;fill-rule:nonzero;fill:rgb(100%,58.823529%,63.921569%);fill-opacity:1;" d="M 19.195312 35.359375 C 19.648438 35.609375 19.800781 36 19.707031 36.421875 C 19.621094 36.824219 19.367188 37.164062 18.886719 37.207031 C 18.160156 37.269531 17.917969 37.03125 17.714844 36.601562 C 17.535156 36.222656 17.699219 35.6875 18.039062 35.433594 C 18.386719 35.175781 18.773438 35.199219 19.195312 35.359375 Z M 19.195312 35.359375 "/>
<path style=" stroke:none;fill-rule:nonzero;fill:rgb(0%,0%,0%);fill-opacity:1;" d="M 30.273438 36.621094 C 29.835938 36.621094 29.445312 36.636719 29.054688 36.617188 C 28.304688 36.578125 28.054688 36.324219 28.03125 35.5625 C 28.011719 35.027344 28.027344 34.492188 28.027344 33.921875 C 29.25 33.921875 30.460938 33.921875 31.707031 33.921875 C 31.707031 34.789062 31.707031 35.675781 31.707031 36.621094 C 31.25 36.621094 30.785156 36.621094 30.273438 36.621094 Z M 30.273438 36.621094 "/>
<path style=" stroke:none;fill-rule:nonzero;fill:rgb(0%,0%,0%);fill-opacity:1;" d="M 34.671875 36.621094 C 34.367188 36.621094 34.105469 36.621094 33.820312 36.621094 C 33.820312 35.714844 33.820312 34.828125 33.820312 33.914062 C 34.992188 33.914062 36.171875 33.914062 37.398438 33.914062 C 37.398438 34.511719 37.445312 35.113281 37.390625 35.703125 C 37.324219 36.40625 37.066406 36.597656 36.332031 36.617188 C 35.792969 36.632812 35.257812 36.621094 34.671875 36.621094 Z M 34.671875 36.621094 "/>
<path style=" stroke:none;fill-rule:nonzero;fill:rgb(0%,0%,0%);fill-opacity:1;" d="M 31.695312 31.792969 C 30.476562 31.828125 29.289062 31.828125 27.980469 31.828125 C 28.035156 31.09375 28.035156 30.351562 28.183594 29.644531 C 28.222656 29.449219 28.691406 29.238281 28.972656 29.21875 C 29.878906 29.167969 30.785156 29.199219 31.730469 29.199219 C 31.730469 30.078125 31.730469 30.921875 31.695312 31.792969 Z M 31.695312 31.792969 "/>
<path style=" stroke:none;fill-rule:nonzero;fill:rgb(0%,0%,0%);fill-opacity:1;" d="M 33.789062 29.984375 C 33.789062 29.710938 33.789062 29.484375 33.789062 29.160156 C 34.773438 29.203125 35.730469 29.261719 36.691406 29.285156 C 37.382812 29.300781 37.34375 29.832031 37.390625 30.257812 C 37.441406 30.757812 37.402344 31.265625 37.402344 31.800781 C 36.210938 31.800781 35.03125 31.800781 33.789062 31.800781 C 33.789062 31.222656 33.789062 30.628906 33.789062 29.984375 Z M 33.789062 29.984375 "/>
</g>
</svg>
