<?xml version="1.0" encoding="UTF-8"?>
<svg xmlns="http://www.w3.org/2000/svg" xmlns:xlink="http://www.w3.org/1999/xlink" width="50px" height="50px" viewBox="0 0 50 50" version="1.1">
<g id="surface1">
<path style=" stroke:none;fill-rule:nonzero;fill:rgb(100%,58.823529%,63.921569%);fill-opacity:1;" d="M 40.332031 50.097656 C 30.171875 50.097656 20.015625 50.097656 9.84375 50.070312 C 9.664062 49.964844 9.5 49.875 9.328125 49.816406 C 8.109375 49.40625 7.15625 48.648438 6.371094 47.640625 C 5.65625 46.722656 5.195312 45.691406 5.199219 44.546875 C 5.199219 43.28125 5.363281 42.019531 5.46875 40.757812 C 5.558594 39.703125 5.65625 38.652344 5.769531 37.601562 C 5.882812 36.539062 6.027344 35.480469 6.152344 34.421875 C 6.226562 33.753906 6.277344 33.082031 6.355469 32.414062 C 6.476562 31.355469 6.613281 30.296875 6.738281 29.234375 C 6.8125 28.597656 6.863281 27.960938 6.941406 27.328125 C 7.0625 26.332031 7.207031 25.339844 7.320312 24.339844 C 7.433594 23.355469 7.515625 22.367188 7.625 21.382812 C 7.742188 20.320312 7.882812 19.261719 8.007812 18.199219 C 8.082031 17.566406 8.132812 16.929688 8.210938 16.292969 C 8.332031 15.28125 8.46875 14.273438 8.59375 13.261719 C 8.6875 12.484375 8.859375 11.738281 9.292969 11.070312 C 10.25 9.589844 11.597656 8.84375 13.378906 8.882812 C 14.347656 8.902344 15.316406 8.886719 16.308594 8.886719 C 16.308594 7.347656 16.308594 5.871094 16.308594 4.390625 C 16.308594 4.246094 16.300781 4.09375 16.332031 3.957031 C 16.765625 2.152344 17.824219 0.90625 19.59375 0.285156 C 19.652344 0.265625 19.683594 0.164062 19.726562 0.0976562 C 23.277344 0.0976562 26.828125 0.0976562 30.390625 0.125 C 30.496094 0.203125 30.585938 0.265625 30.6875 0.296875 C 31.707031 0.59375 32.441406 1.308594 33.0625 2.097656 C 33.640625 2.828125 33.90625 3.714844 33.890625 4.671875 C 33.871094 6.066406 33.886719 7.460938 33.886719 8.886719 C 34.941406 8.886719 35.949219 8.867188 36.953125 8.894531 C 37.390625 8.90625 37.839844 8.972656 38.265625 9.082031 C 40.039062 9.542969 41.253906 11.015625 41.5 12.6875 C 41.625 13.539062 41.699219 14.398438 41.804688 15.253906 C 41.925781 16.25 42.070312 17.242188 42.183594 18.238281 C 42.296875 19.222656 42.378906 20.210938 42.488281 21.195312 C 42.605469 22.257812 42.746094 23.316406 42.871094 24.378906 C 42.945312 25.015625 43 25.652344 43.074219 26.285156 C 43.195312 27.332031 43.335938 28.375 43.453125 29.417969 C 43.535156 30.101562 43.585938 30.789062 43.664062 31.472656 C 43.785156 32.5 43.921875 33.527344 44.042969 34.554688 C 44.121094 35.222656 44.175781 35.890625 44.253906 36.558594 C 44.375 37.570312 44.507812 38.582031 44.628906 39.597656 C 44.707031 40.277344 44.75 40.964844 44.847656 41.644531 C 45.019531 42.8125 45.15625 43.980469 44.917969 45.144531 C 44.417969 47.613281 42.898438 49.164062 40.515625 49.90625 C 40.441406 49.929688 40.390625 50.03125 40.332031 50.097656 M 11.425781 14.90625 C 11.425781 15.050781 11.4375 15.199219 11.417969 15.34375 C 11.292969 16.339844 11.152344 17.335938 11.039062 18.332031 C 10.925781 19.316406 10.84375 20.304688 10.734375 21.289062 C 10.617188 22.351562 10.476562 23.410156 10.351562 24.472656 C 10.277344 25.136719 10.226562 25.808594 10.148438 26.476562 C 10.027344 27.503906 9.886719 28.53125 9.769531 29.558594 C 9.6875 30.226562 9.636719 30.898438 9.5625 31.5625 C 9.441406 32.609375 9.300781 33.652344 9.179688 34.699219 C 9.074219 35.632812 8.988281 36.574219 8.878906 37.511719 C 8.757812 38.554688 8.625 39.597656 8.496094 40.644531 C 8.40625 41.339844 8.304688 42.03125 8.226562 42.730469 C 8.128906 43.550781 8.046875 44.367188 8.410156 45.160156 C 9.054688 46.582031 10.230469 47.164062 11.703125 47.160156 C 20.890625 47.144531 30.074219 47.105469 39.261719 47.066406 C 39.890625 47.066406 40.414062 46.765625 40.882812 46.371094 C 42.023438 45.40625 42.167969 44.136719 41.988281 42.761719 C 41.851562 41.71875 41.726562 40.671875 41.601562 39.628906 C 41.527344 38.976562 41.472656 38.324219 41.398438 37.671875 C 41.273438 36.628906 41.136719 35.585938 41.015625 34.539062 C 40.910156 33.601562 40.824219 32.664062 40.714844 31.726562 C 40.597656 30.730469 40.449219 29.738281 40.335938 28.742188 C 40.222656 27.753906 40.144531 26.765625 40.03125 25.78125 C 39.917969 24.800781 39.765625 23.824219 39.652344 22.84375 C 39.539062 21.84375 39.464844 20.835938 39.347656 19.835938 C 39.199219 18.570312 39.019531 17.308594 38.871094 16.042969 C 38.757812 15.105469 38.722656 14.160156 38.554688 13.234375 C 38.445312 12.621094 38.066406 12.027344 37.417969 11.949219 C 36.257812 11.808594 35.078125 11.824219 33.921875 11.773438 C 33.921875 12.832031 33.921875 13.785156 33.921875 14.757812 C 34.40625 14.757812 34.859375 14.757812 35.328125 14.757812 C 35.328125 15.738281 35.328125 16.6875 35.328125 17.652344 C 33.378906 17.652344 31.453125 17.652344 29.519531 17.652344 C 29.519531 16.675781 29.519531 15.726562 29.519531 14.730469 C 30.007812 14.730469 30.472656 14.730469 30.925781 14.730469 C 30.925781 13.734375 30.925781 12.785156 30.925781 11.851562 C 27.011719 11.851562 23.132812 11.851562 19.273438 11.851562 C 19.273438 12.835938 19.273438 13.785156 19.273438 14.761719 C 19.761719 14.761719 20.210938 14.761719 20.679688 14.761719 C 20.679688 15.738281 20.679688 16.691406 20.679688 17.648438 C 18.726562 17.648438 16.800781 17.648438 14.871094 17.648438 C 14.871094 16.671875 14.871094 15.722656 14.871094 14.726562 C 15.363281 14.726562 15.824219 14.726562 16.273438 14.726562 C 16.273438 13.734375 16.273438 12.78125 16.273438 11.816406 C 15.347656 11.816406 14.453125 11.792969 13.558594 11.820312 C 12.320312 11.859375 11.769531 12.386719 11.617188 13.589844 C 11.566406 14 11.492188 14.40625 11.425781 14.90625 M 23.679688 8.886719 C 26.097656 8.886719 28.511719 8.886719 30.859375 8.886719 C 30.859375 7.378906 30.878906 5.925781 30.847656 4.476562 C 30.835938 3.910156 30.109375 3.207031 29.535156 3.132812 C 29.09375 3.074219 28.644531 3.035156 28.195312 3.03125 C 26.035156 3.023438 23.871094 3.023438 21.710938 3.03125 C 21.34375 3.035156 20.960938 3.03125 20.617188 3.144531 C 20.171875 3.285156 19.671875 3.472656 19.542969 3.996094 C 19.398438 4.605469 19.28125 5.234375 19.25 5.863281 C 19.203125 6.859375 19.238281 7.863281 19.238281 8.886719 C 20.726562 8.886719 22.15625 8.886719 23.679688 8.886719 Z M 23.679688 8.886719 "/>
<path style=" stroke:none;fill-rule:nonzero;fill:rgb(0%,0%,0%);fill-opacity:1;" d="M 40.378906 50.097656 C 40.390625 50.03125 40.441406 49.929688 40.515625 49.90625 C 42.898438 49.164062 44.417969 47.613281 44.917969 45.144531 C 45.15625 43.980469 45.019531 42.8125 44.847656 41.644531 C 44.75 40.964844 44.707031 40.277344 44.628906 39.597656 C 44.507812 38.582031 44.375 37.570312 44.253906 36.558594 C 44.175781 35.890625 44.121094 35.222656 44.042969 34.554688 C 43.921875 33.527344 43.785156 32.5 43.664062 31.472656 C 43.585938 30.789062 43.535156 30.101562 43.453125 29.417969 C 43.335938 28.375 43.195312 27.332031 43.074219 26.285156 C 43 25.652344 42.945312 25.015625 42.871094 24.378906 C 42.746094 23.316406 42.605469 22.257812 42.488281 21.195312 C 42.378906 20.210938 42.296875 19.222656 42.183594 18.238281 C 42.070312 17.242188 41.925781 16.25 41.804688 15.253906 C 41.699219 14.398438 41.625 13.539062 41.5 12.6875 C 41.253906 11.015625 40.039062 9.542969 38.265625 9.082031 C 37.839844 8.972656 37.390625 8.90625 36.953125 8.894531 C 35.949219 8.867188 34.941406 8.886719 33.886719 8.886719 C 33.886719 7.460938 33.871094 6.066406 33.890625 4.671875 C 33.90625 3.714844 33.640625 2.828125 33.0625 2.097656 C 32.441406 1.308594 31.707031 0.59375 30.6875 0.296875 C 30.585938 0.265625 30.496094 0.203125 30.4375 0.125 C 37.007812 0.0976562 43.546875 0.0976562 50.09375 0.0976562 C 50.09375 16.765625 50.09375 33.429688 50.09375 50.097656 C 46.867188 50.097656 43.644531 50.097656 40.378906 50.097656 Z M 40.378906 50.097656 "/>
<path style=" stroke:none;fill-rule:nonzero;fill:rgb(0%,0%,0%);fill-opacity:1;" d="M 19.679688 0.0976562 C 19.683594 0.164062 19.652344 0.265625 19.59375 0.285156 C 17.824219 0.90625 16.765625 2.152344 16.332031 3.957031 C 16.300781 4.09375 16.308594 4.246094 16.308594 4.390625 C 16.308594 5.871094 16.308594 7.347656 16.308594 8.886719 C 15.316406 8.886719 14.347656 8.902344 13.378906 8.882812 C 11.597656 8.84375 10.25 9.589844 9.292969 11.070312 C 8.859375 11.738281 8.6875 12.484375 8.59375 13.261719 C 8.46875 14.273438 8.332031 15.28125 8.210938 16.292969 C 8.132812 16.929688 8.082031 17.566406 8.007812 18.199219 C 7.882812 19.261719 7.742188 20.320312 7.625 21.382812 C 7.515625 22.367188 7.433594 23.355469 7.320312 24.339844 C 7.207031 25.339844 7.0625 26.332031 6.941406 27.328125 C 6.863281 27.960938 6.8125 28.597656 6.738281 29.234375 C 6.613281 30.296875 6.476562 31.355469 6.355469 32.414062 C 6.277344 33.082031 6.226562 33.753906 6.152344 34.421875 C 6.027344 35.480469 5.882812 36.539062 5.769531 37.601562 C 5.65625 38.652344 5.558594 39.703125 5.46875 40.757812 C 5.363281 42.019531 5.199219 43.28125 5.199219 44.546875 C 5.195312 45.691406 5.65625 46.722656 6.371094 47.640625 C 7.15625 48.648438 8.109375 49.40625 9.328125 49.816406 C 9.5 49.875 9.664062 49.964844 9.796875 50.070312 C 6.542969 50.097656 3.324219 50.097656 0.101562 50.097656 C 0.101562 33.441406 0.101562 16.785156 0.101562 0.0976562 C 6.609375 0.0976562 13.121094 0.0976562 19.679688 0.0976562 Z M 19.679688 0.0976562 "/>
<path style=" stroke:none;fill-rule:nonzero;fill:rgb(0%,0%,0%);fill-opacity:1;" d="M 11.425781 14.859375 C 11.492188 14.40625 11.566406 14 11.617188 13.589844 C 11.769531 12.386719 12.320312 11.859375 13.558594 11.820312 C 14.453125 11.792969 15.347656 11.816406 16.273438 11.816406 C 16.273438 12.78125 16.273438 13.734375 16.273438 14.726562 C 15.824219 14.726562 15.363281 14.726562 14.871094 14.726562 C 14.871094 15.722656 14.871094 16.671875 14.871094 17.648438 C 16.800781 17.648438 18.726562 17.648438 20.679688 17.648438 C 20.679688 16.691406 20.679688 15.738281 20.679688 14.761719 C 20.210938 14.761719 19.761719 14.761719 19.273438 14.761719 C 19.273438 13.785156 19.273438 12.835938 19.273438 11.851562 C 23.132812 11.851562 27.011719 11.851562 30.925781 11.851562 C 30.925781 12.785156 30.925781 13.734375 30.925781 14.730469 C 30.472656 14.730469 30.007812 14.730469 29.519531 14.730469 C 29.519531 15.726562 29.519531 16.675781 29.519531 17.652344 C 31.453125 17.652344 33.378906 17.652344 35.328125 17.652344 C 35.328125 16.6875 35.328125 15.738281 35.328125 14.757812 C 34.859375 14.757812 34.40625 14.757812 33.921875 14.757812 C 33.921875 13.785156 33.921875 12.832031 33.921875 11.773438 C 35.078125 11.824219 36.257812 11.808594 37.417969 11.949219 C 38.066406 12.027344 38.445312 12.621094 38.554688 13.234375 C 38.722656 14.160156 38.757812 15.105469 38.871094 16.042969 C 39.019531 17.308594 39.199219 18.570312 39.347656 19.835938 C 39.464844 20.835938 39.539062 21.84375 39.652344 22.84375 C 39.765625 23.824219 39.917969 24.800781 40.03125 25.78125 C 40.144531 26.765625 40.222656 27.753906 40.335938 28.742188 C 40.449219 29.738281 40.597656 30.730469 40.714844 31.726562 C 40.824219 32.664062 40.910156 33.601562 41.015625 34.539062 C 41.136719 35.585938 41.273438 36.628906 41.398438 37.671875 C 41.472656 38.324219 41.527344 38.976562 41.601562 39.628906 C 41.726562 40.671875 41.851562 41.71875 41.988281 42.761719 C 42.167969 44.136719 42.023438 45.40625 40.882812 46.371094 C 40.414062 46.765625 39.890625 47.066406 39.261719 47.066406 C 30.074219 47.105469 20.890625 47.144531 11.703125 47.160156 C 10.230469 47.164062 9.054688 46.582031 8.410156 45.160156 C 8.046875 44.367188 8.128906 43.550781 8.226562 42.730469 C 8.304688 42.03125 8.40625 41.339844 8.496094 40.644531 C 8.625 39.597656 8.757812 38.554688 8.878906 37.511719 C 8.988281 36.574219 9.074219 35.632812 9.179688 34.699219 C 9.300781 33.652344 9.441406 32.609375 9.5625 31.5625 C 9.636719 30.898438 9.6875 30.226562 9.769531 29.558594 C 9.886719 28.53125 10.027344 27.503906 10.148438 26.476562 C 10.226562 25.808594 10.277344 25.136719 10.351562 24.472656 C 10.476562 23.410156 10.617188 22.351562 10.734375 21.289062 C 10.84375 20.304688 10.925781 19.316406 11.039062 18.332031 C 11.152344 17.335938 11.292969 16.339844 11.417969 15.34375 C 11.4375 15.199219 11.425781 15.050781 11.425781 14.859375 M 17.285156 36.378906 C 17.964844 36.992188 18.65625 37.597656 19.324219 38.222656 C 20.953125 39.746094 22.574219 41.277344 24.199219 42.800781 C 24.488281 43.070312 24.796875 43.324219 25.105469 43.59375 C 25.792969 42.972656 26.460938 42.390625 27.105469 41.785156 C 28.320312 40.648438 29.523438 39.5 30.734375 38.355469 C 31.261719 37.859375 31.796875 37.367188 32.324219 36.863281 C 33.167969 36.054688 34.121094 35.328125 34.832031 34.414062 C 36.058594 32.824219 36.390625 30.96875 35.980469 28.992188 C 35.683594 27.550781 34.929688 26.394531 33.859375 25.402344 C 32.273438 23.929688 30.363281 23.527344 28.308594 23.761719 C 27.125 23.898438 26.03125 24.390625 25.15625 25.179688 C 24.578125 24.847656 24.046875 24.507812 23.484375 24.226562 C 22.46875 23.714844 21.363281 23.6875 20.253906 23.730469 C 18.875 23.785156 17.644531 24.292969 16.605469 25.160156 C 15.261719 26.285156 14.390625 27.699219 14.140625 29.492188 C 13.914062 31.097656 14.269531 32.542969 15.03125 33.933594 C 15.570312 34.917969 16.476562 35.554688 17.285156 36.378906 Z M 17.285156 36.378906 "/>
<path style=" stroke:none;fill-rule:nonzero;fill:rgb(0%,0%,0%);fill-opacity:1;" d="M 23.632812 8.886719 C 22.15625 8.886719 20.726562 8.886719 19.238281 8.886719 C 19.238281 7.863281 19.203125 6.859375 19.25 5.863281 C 19.28125 5.234375 19.398438 4.605469 19.542969 3.996094 C 19.671875 3.472656 20.171875 3.285156 20.617188 3.144531 C 20.960938 3.03125 21.34375 3.035156 21.710938 3.03125 C 23.871094 3.023438 26.035156 3.023438 28.195312 3.03125 C 28.644531 3.035156 29.09375 3.074219 29.535156 3.132812 C 30.109375 3.207031 30.835938 3.910156 30.847656 4.476562 C 30.878906 5.925781 30.859375 7.378906 30.859375 8.886719 C 28.511719 8.886719 26.097656 8.886719 23.632812 8.886719 Z M 23.632812 8.886719 "/>
<path style=" stroke:none;fill-rule:nonzero;fill:rgb(100%,58.823529%,63.921569%);fill-opacity:1;" d="M 17.261719 36.351562 C 16.476562 35.554688 15.570312 34.917969 15.03125 33.933594 C 14.269531 32.542969 13.914062 31.097656 14.140625 29.492188 C 14.390625 27.699219 15.261719 26.285156 16.605469 25.160156 C 17.644531 24.292969 18.875 23.785156 20.253906 23.730469 C 21.363281 23.6875 22.46875 23.714844 23.484375 24.226562 C 24.046875 24.507812 24.578125 24.847656 25.15625 25.179688 C 26.03125 24.390625 27.125 23.898438 28.308594 23.761719 C 30.363281 23.527344 32.273438 23.929688 33.859375 25.402344 C 34.929688 26.394531 35.683594 27.550781 35.980469 28.992188 C 36.390625 30.96875 36.058594 32.824219 34.832031 34.414062 C 34.121094 35.328125 33.167969 36.054688 32.324219 36.863281 C 31.796875 37.367188 31.261719 37.859375 30.734375 38.355469 C 29.523438 39.5 28.320312 40.648438 27.105469 41.785156 C 26.460938 42.390625 25.792969 42.972656 25.105469 43.59375 C 24.796875 43.324219 24.488281 43.070312 24.199219 42.800781 C 22.574219 41.277344 20.953125 39.746094 19.324219 38.222656 C 18.65625 37.597656 17.964844 36.992188 17.261719 36.351562 M 17.1875 29.835938 C 16.941406 30.703125 17.097656 31.554688 17.589844 32.242188 C 18.132812 33.003906 18.839844 33.652344 19.519531 34.304688 C 20.980469 35.699219 22.464844 37.066406 23.941406 38.441406 C 24.316406 38.789062 24.710938 39.117188 25.097656 39.457031 C 25.871094 38.765625 26.648438 38.089844 27.398438 37.390625 C 28.972656 35.929688 30.601562 34.519531 32.085938 32.96875 C 33.953125 31.023438 33.25 28.011719 30.777344 26.992188 C 29.304688 26.382812 27.863281 26.710938 26.683594 27.863281 C 26.152344 28.378906 25.636719 28.914062 25.09375 29.464844 C 24.550781 28.914062 24.066406 28.410156 23.570312 27.917969 C 22.804688 27.15625 21.917969 26.746094 20.800781 26.742188 C 19.066406 26.742188 17.46875 27.960938 17.1875 29.835938 Z M 17.1875 29.835938 "/>
<path style=" stroke:none;fill-rule:nonzero;fill:rgb(0%,0%,0%);fill-opacity:1;" d="M 17.1875 29.792969 C 17.46875 27.960938 19.066406 26.742188 20.800781 26.742188 C 21.917969 26.746094 22.804688 27.15625 23.570312 27.917969 C 24.066406 28.410156 24.550781 28.914062 25.09375 29.464844 C 25.636719 28.914062 26.152344 28.378906 26.683594 27.863281 C 27.863281 26.710938 29.304688 26.382812 30.777344 26.992188 C 33.25 28.011719 33.953125 31.023438 32.085938 32.96875 C 30.601562 34.519531 28.972656 35.929688 27.398438 37.390625 C 26.648438 38.089844 25.871094 38.765625 25.097656 39.457031 C 24.710938 39.117188 24.316406 38.789062 23.941406 38.441406 C 22.464844 37.066406 20.980469 35.699219 19.519531 34.304688 C 18.839844 33.652344 18.132812 33.003906 17.589844 32.242188 C 17.097656 31.554688 16.941406 30.703125 17.1875 29.792969 Z M 17.1875 29.792969 "/>
</g>
</svg>
