<?xml version="1.0" encoding="UTF-8"?>
<svg xmlns="http://www.w3.org/2000/svg" xmlns:xlink="http://www.w3.org/1999/xlink" width="50px" height="50px" viewBox="0 0 50 50" version="1.1">
<g id="surface1">
<path style=" stroke:none;fill-rule:nonzero;fill:rgb(0%,0%,0%);fill-opacity:1;" d="M 27.441406 0.0976562 C 34.988281 0.0976562 42.539062 0.0976562 50.09375 0.0976562 C 50.09375 16.753906 50.09375 33.40625 50.09375 50.097656 C 45.570312 50.097656 41.042969 50.097656 36.4375 50.066406 C 36.394531 50.003906 36.417969 49.945312 36.460938 49.933594 C 39.140625 49.132812 40.753906 47.328125 41.179688 44.601562 C 41.496094 42.574219 40.832031 40.746094 39.390625 39.261719 C 38.929688 38.789062 38.347656 38.433594 37.875 38.0625 C 38.085938 37.820312 38.324219 37.566406 38.535156 37.292969 C 39.90625 35.535156 39.863281 33.371094 38.578125 31.609375 C 38.175781 31.058594 37.816406 30.585938 37.742188 29.808594 C 37.605469 28.355469 37.078125 26.980469 36.003906 25.871094 C 37.617188 24.03125 38.800781 21.964844 39.4375 19.625 C 40.082031 17.257812 40.097656 14.847656 39.71875 12.472656 C 40.613281 12.007812 41.292969 11.414062 41.832031 10.65625 C 42.601562 9.574219 43 8.347656 42.945312 7.042969 C 42.890625 5.683594 42.496094 4.398438 41.601562 3.308594 C 40.503906 1.972656 39.101562 1.199219 37.378906 1.082031 C 35.90625 0.980469 34.597656 1.484375 33.445312 2.375 C 33.222656 2.546875 33.085938 2.507812 32.90625 2.386719 C 31.289062 1.328125 29.539062 0.601562 27.625 0.285156 C 27.554688 0.273438 27.503906 0.164062 27.441406 0.0976562 Z M 27.441406 0.0976562 "/>
<path style=" stroke:none;fill-rule:nonzero;fill:rgb(0%,0%,0%);fill-opacity:1;" d="M 13.769531 50.097656 C 9.214844 50.097656 4.660156 50.097656 0.101562 50.097656 C 0.101562 33.441406 0.101562 16.785156 0.101562 0.0976562 C 7.621094 0.0976562 15.140625 0.0976562 22.742188 0.128906 C 22.738281 0.203125 22.664062 0.273438 22.578125 0.289062 C 20.6875 0.578125 18.96875 1.296875 17.371094 2.324219 C 17.078125 2.515625 16.886719 2.519531 16.636719 2.320312 C 15.300781 1.269531 13.800781 0.855469 12.121094 1.175781 C 10.601562 1.464844 9.375 2.238281 8.46875 3.492188 C 7.523438 4.796875 7.097656 6.230469 7.308594 7.875 C 7.578125 9.96875 8.65625 11.457031 10.480469 12.527344 C 10.40625 13.019531 10.273438 13.539062 10.265625 14.058594 C 10.242188 15.632812 10.1875 17.214844 10.542969 18.773438 C 11.128906 21.332031 12.152344 23.664062 13.949219 25.617188 C 14.191406 25.875 14.101562 26.058594 13.902344 26.292969 C 13.089844 27.246094 12.699219 28.378906 12.480469 29.601562 C 12.398438 30.050781 12.574219 30.554688 12.171875 30.957031 C 10.953125 32.167969 10.394531 33.613281 10.746094 35.335938 C 10.96875 36.421875 11.503906 37.335938 12.335938 38.046875 C 12.257812 38.109375 12.167969 38.199219 12.058594 38.265625 C 9.394531 39.855469 8.40625 42.761719 9.226562 45.574219 C 9.875 47.796875 11.378906 49.261719 13.636719 49.910156 C 13.695312 49.925781 13.726562 50.03125 13.769531 50.097656 Z M 13.769531 50.097656 "/>
<path style=" stroke:none;fill-rule:nonzero;fill:rgb(100%,58.823529%,63.921569%);fill-opacity:1;" d="M 13.816406 50.097656 C 13.726562 50.03125 13.695312 49.925781 13.636719 49.910156 C 11.378906 49.261719 9.875 47.796875 9.226562 45.574219 C 8.40625 42.761719 9.394531 39.855469 12.058594 38.265625 C 12.167969 38.199219 12.257812 38.109375 12.335938 38.046875 C 11.503906 37.335938 10.96875 36.421875 10.746094 35.335938 C 10.394531 33.613281 10.953125 32.167969 12.171875 30.957031 C 12.574219 30.554688 12.398438 30.050781 12.480469 29.601562 C 12.699219 28.378906 13.089844 27.246094 13.902344 26.292969 C 14.101562 26.058594 14.191406 25.875 13.949219 25.617188 C 12.152344 23.664062 11.128906 21.332031 10.542969 18.773438 C 10.1875 17.214844 10.242188 15.632812 10.265625 14.058594 C 10.273438 13.539062 10.40625 13.019531 10.480469 12.527344 C 8.65625 11.457031 7.578125 9.96875 7.308594 7.875 C 7.097656 6.230469 7.523438 4.796875 8.46875 3.492188 C 9.375 2.238281 10.601562 1.464844 12.121094 1.175781 C 13.800781 0.855469 15.300781 1.269531 16.636719 2.320312 C 16.886719 2.519531 17.078125 2.515625 17.371094 2.324219 C 18.96875 1.296875 20.6875 0.578125 22.578125 0.289062 C 22.664062 0.273438 22.738281 0.203125 22.785156 0.128906 C 24.285156 0.0976562 25.816406 0.0976562 27.394531 0.0976562 C 27.503906 0.164062 27.554688 0.273438 27.625 0.285156 C 29.539062 0.601562 31.289062 1.328125 32.90625 2.386719 C 33.085938 2.507812 33.222656 2.546875 33.445312 2.375 C 34.597656 1.484375 35.90625 0.980469 37.378906 1.082031 C 39.101562 1.199219 40.503906 1.972656 41.601562 3.308594 C 42.496094 4.398438 42.890625 5.683594 42.945312 7.042969 C 43 8.347656 42.601562 9.574219 41.832031 10.65625 C 41.292969 11.414062 40.613281 12.007812 39.71875 12.472656 C 40.097656 14.847656 40.082031 17.257812 39.4375 19.625 C 38.800781 21.964844 37.617188 24.03125 36.003906 25.871094 C 37.078125 26.980469 37.605469 28.355469 37.742188 29.808594 C 37.816406 30.585938 38.175781 31.058594 38.578125 31.609375 C 39.863281 33.371094 39.90625 35.535156 38.535156 37.292969 C 38.324219 37.566406 38.085938 37.820312 37.875 38.0625 C 38.347656 38.433594 38.929688 38.789062 39.390625 39.261719 C 40.832031 40.746094 41.496094 42.574219 41.179688 44.601562 C 40.753906 47.328125 39.140625 49.132812 36.460938 49.933594 C 36.417969 49.945312 36.394531 50.003906 36.394531 50.066406 C 35.414062 50.097656 34.402344 50.097656 33.378906 50.066406 C 33.34375 50.011719 33.328125 49.972656 33.304688 49.964844 C 32.273438 49.703125 31.371094 49.214844 30.574219 48.515625 C 30.492188 48.445312 30.277344 48.472656 30.140625 48.515625 C 28.097656 49.144531 26.03125 49.425781 23.878906 49.242188 C 22.554688 49.132812 21.28125 48.886719 20.019531 48.5 C 19.882812 48.457031 19.664062 48.488281 19.554688 48.574219 C 18.796875 49.183594 17.996094 49.703125 17.027344 49.910156 C 16.972656 49.921875 16.9375 50.03125 16.894531 50.097656 C 15.882812 50.097656 14.871094 50.097656 13.816406 50.097656 M 23.925781 24.65625 C 24.320312 25.089844 24.71875 25.523438 25.113281 25.953125 C 27.84375 22.003906 31.886719 22.347656 34.644531 24.617188 C 34.914062 24.285156 35.1875 23.953125 35.449219 23.613281 C 36.453125 22.328125 37.109375 20.875 37.570312 19.3125 C 38.148438 17.339844 38.242188 15.324219 37.964844 13.3125 C 37.714844 11.527344 37.113281 9.832031 36.164062 8.261719 C 34.886719 6.148438 33.171875 4.492188 31.011719 3.324219 C 28.679688 2.066406 26.179688 1.628906 23.527344 1.9375 C 22.238281 2.089844 21.019531 2.457031 19.851562 2.972656 C 17.839844 3.859375 16.203125 5.25 14.855469 6.972656 C 13.195312 9.101562 12.265625 11.542969 12.035156 14.210938 C 11.871094 16.097656 12.078125 17.980469 12.695312 19.800781 C 13.292969 21.5625 14.15625 23.167969 15.40625 24.453125 C 16.039062 24.128906 16.625 23.820312 17.21875 23.53125 C 19.476562 22.433594 22.113281 22.882812 23.925781 24.65625 M 30.175781 34.046875 C 30.191406 33.054688 30.570312 32.1875 31.203125 31.453125 C 32.414062 30.042969 33.964844 29.476562 35.859375 29.789062 C 35.691406 28.71875 35.382812 27.761719 34.660156 27.007812 C 33.644531 25.953125 32.488281 25.136719 30.988281 24.859375 C 29.601562 24.601562 28.042969 25.25 27.273438 26.234375 C 26.722656 26.941406 26.300781 27.75 25.832031 28.515625 C 25.632812 28.84375 25.335938 28.996094 24.996094 28.890625 C 24.746094 28.8125 24.441406 28.636719 24.332031 28.417969 C 23.851562 27.492188 23.324219 26.613281 22.542969 25.914062 C 21.433594 24.917969 20.171875 24.558594 18.710938 24.976562 C 17.191406 25.410156 16.035156 26.351562 15.085938 27.558594 C 14.578125 28.210938 14.300781 28.988281 14.253906 29.84375 C 16.335938 29.386719 18.277344 30.234375 19.308594 31.867188 C 19.925781 32.851562 20.152344 33.9375 20.007812 35.078125 C 19.875 36.160156 19.355469 37.082031 18.59375 37.824219 C 18.75 37.992188 18.894531 38.144531 19.042969 38.296875 C 20.867188 40.164062 22.6875 42.035156 24.519531 43.898438 C 24.855469 44.242188 25.355469 44.222656 25.671875 43.890625 C 27.226562 42.277344 28.78125 40.660156 30.335938 39.050781 C 30.742188 38.632812 31.160156 38.230469 31.585938 37.808594 C 30.589844 36.753906 30.066406 35.566406 30.175781 34.046875 M 10.742188 44.070312 C 10.839844 44.777344 11.0625 45.421875 11.402344 46.070312 C 12.265625 47.710938 14.476562 48.699219 16.332031 48.242188 C 18.019531 47.824219 19.171875 46.789062 19.714844 45.152344 C 20.203125 43.675781 19.945312 42.28125 19.046875 40.996094 C 18.171875 39.75 16.089844 38.855469 14.640625 39.167969 C 12.230469 39.6875 10.660156 41.589844 10.742188 44.070312 M 31.789062 40.332031 C 31.449219 40.75 31.011719 41.125 30.78125 41.597656 C 29.929688 43.324219 30.03125 45.039062 31.214844 46.566406 C 32.070312 47.671875 33.234375 48.324219 34.707031 48.351562 C 36.03125 48.375 37.136719 47.90625 38.058594 47.015625 C 38.875 46.230469 39.390625 45.246094 39.441406 44.109375 C 39.511719 42.484375 38.914062 41.132812 37.613281 40.097656 C 35.960938 38.78125 33.394531 38.847656 31.789062 40.332031 M 13.777344 36.871094 C 14.898438 37.5 15.988281 37.527344 17.058594 36.726562 C 17.972656 36.046875 18.394531 35.128906 18.242188 34.035156 C 18.085938 32.929688 17.441406 32.105469 16.339844 31.757812 C 15.203125 31.402344 14.058594 31.683594 13.277344 32.441406 C 11.894531 33.785156 12.226562 35.726562 13.777344 36.871094 M 35.351562 37.304688 C 35.851562 37.042969 36.421875 36.863281 36.832031 36.503906 C 38.152344 35.351562 38.089844 32.949219 36.375 32.089844 C 35.117188 31.460938 33.601562 31.714844 32.660156 32.808594 C 31.789062 33.824219 31.875 35.542969 32.742188 36.421875 C 33.457031 37.144531 34.296875 37.378906 35.351562 37.304688 M 9.082031 6.527344 C 9.113281 7.089844 9.074219 7.664062 9.195312 8.207031 C 9.421875 9.230469 9.980469 10.0625 10.796875 10.566406 C 11.449219 9.347656 12.011719 8.085938 12.765625 6.949219 C 13.535156 5.785156 14.488281 4.742188 15.4375 3.546875 C 14.839844 3.347656 14.222656 3.085938 13.578125 2.9375 C 12.417969 2.664062 11.4375 3.117188 10.566406 3.84375 C 9.753906 4.523438 9.289062 5.410156 9.082031 6.527344 M 41.113281 6.894531 C 41.125 4.21875 38.074219 1.339844 34.675781 3.6875 C 36.875 5.542969 38.355469 7.878906 39.285156 10.621094 C 40.53125 9.644531 41.167969 8.484375 41.113281 6.894531 M 25.050781 47.558594 C 26.46875 47.566406 27.851562 47.359375 29.179688 46.929688 C 28.984375 46.40625 28.761719 45.929688 28.632812 45.429688 C 28.5 44.933594 28.460938 44.410156 28.355469 43.714844 C 28.214844 43.929688 28.152344 44.0625 28.054688 44.164062 C 27.640625 44.585938 27.265625 45.070312 26.789062 45.402344 C 25.566406 46.253906 24.027344 46.257812 22.921875 45.039062 C 22.574219 44.660156 22.226562 44.28125 21.878906 43.894531 C 21.570312 44.992188 21.296875 45.980469 20.984375 47.085938 C 22.28125 47.242188 23.617188 47.398438 25.050781 47.558594 Z M 25.050781 47.558594 "/>
<path style=" stroke:none;fill-rule:nonzero;fill:rgb(0%,0%,0%);fill-opacity:1;" d="M 16.941406 50.097656 C 16.9375 50.03125 16.972656 49.921875 17.027344 49.910156 C 17.996094 49.703125 18.796875 49.183594 19.554688 48.574219 C 19.664062 48.488281 19.882812 48.457031 20.019531 48.5 C 21.28125 48.886719 22.554688 49.132812 23.878906 49.242188 C 26.03125 49.425781 28.097656 49.144531 30.140625 48.515625 C 30.277344 48.472656 30.492188 48.445312 30.574219 48.515625 C 31.371094 49.214844 32.273438 49.703125 33.304688 49.964844 C 33.328125 49.972656 33.34375 50.011719 33.332031 50.066406 C 27.863281 50.097656 22.425781 50.097656 16.941406 50.097656 Z M 16.941406 50.097656 "/>
<path style=" stroke:none;fill-rule:nonzero;fill:rgb(0%,0%,0%);fill-opacity:1;" d="M 23.898438 24.632812 C 22.113281 22.882812 19.476562 22.433594 17.21875 23.53125 C 16.625 23.820312 16.039062 24.128906 15.40625 24.453125 C 14.15625 23.167969 13.292969 21.5625 12.695312 19.800781 C 12.078125 17.980469 11.871094 16.097656 12.035156 14.210938 C 12.265625 11.542969 13.195312 9.101562 14.855469 6.972656 C 16.203125 5.25 17.839844 3.859375 19.851562 2.972656 C 21.019531 2.457031 22.238281 2.089844 23.527344 1.9375 C 26.179688 1.628906 28.679688 2.066406 31.011719 3.324219 C 33.171875 4.492188 34.886719 6.148438 36.164062 8.261719 C 37.113281 9.832031 37.714844 11.527344 37.964844 13.3125 C 38.242188 15.324219 38.148438 17.339844 37.570312 19.3125 C 37.109375 20.875 36.453125 22.328125 35.449219 23.613281 C 35.1875 23.953125 34.914062 24.285156 34.644531 24.617188 C 31.886719 22.347656 27.84375 22.003906 25.113281 25.953125 C 24.71875 25.523438 24.320312 25.089844 23.898438 24.632812 M 27.929688 16.636719 C 27.964844 16.417969 27.972656 16.1875 28.042969 15.980469 C 28.367188 15.015625 27.414062 13.703125 26.5 13.671875 C 25.695312 13.644531 24.886719 13.566406 24.085938 13.585938 C 23.019531 13.609375 22.277344 14.203125 22.105469 15.203125 C 22.027344 15.648438 22.160156 16.125 22.164062 16.589844 C 22.167969 17.164062 22.371094 17.632812 22.769531 18.042969 C 23.171875 18.457031 23.625 18.738281 24.21875 18.785156 C 24.21875 19.054688 24.242188 19.300781 24.214844 19.539062 C 24.128906 20.320312 23.523438 20.59375 22.960938 20.238281 C 22.738281 20.097656 22.714844 19.675781 22.550781 19.410156 C 22.40625 19.167969 22.226562 18.835938 22.007812 18.78125 C 21.652344 18.699219 21.253906 18.660156 20.953125 19.101562 C 20.507812 19.746094 21.140625 21.304688 22.023438 21.792969 C 23.109375 22.394531 24.117188 22.265625 25.097656 21.585938 C 26.6875 22.757812 28.835938 22.140625 29.347656 20.121094 C 29.472656 19.628906 29.316406 19.019531 28.976562 18.839844 C 28.585938 18.632812 28.011719 18.71875 27.769531 19.070312 C 27.644531 19.253906 27.554688 19.507812 27.554688 19.726562 C 27.558594 20.238281 27.175781 20.367188 26.84375 20.382812 C 26.476562 20.398438 26.085938 20.257812 26.050781 19.757812 C 26.027344 19.425781 25.988281 19.097656 25.953125 18.769531 C 25.996094 18.804688 26.042969 18.839844 26.085938 18.875 C 26.464844 18.664062 26.851562 18.46875 27.214844 18.238281 C 27.769531 17.886719 27.664062 17.214844 27.929688 16.636719 M 30.546875 8.792969 C 30.265625 8.964844 29.960938 9.109375 29.703125 9.316406 C 28.945312 9.929688 28.5625 10.738281 28.46875 11.710938 C 28.417969 12.210938 28.5625 12.714844 29.21875 12.859375 C 29.617188 12.945312 30.035156 12.617188 30.183594 12.148438 C 30.332031 11.675781 30.433594 11.132812 30.738281 10.777344 C 31.152344 10.296875 31.8125 10.203125 32.421875 10.414062 C 33.078125 10.644531 33.480469 11.121094 33.5 11.867188 C 33.515625 12.378906 33.964844 12.867188 34.402344 12.886719 C 34.800781 12.910156 35.363281 12.414062 35.335938 11.964844 C 35.296875 11.238281 35.144531 10.5 34.667969 9.929688 C 33.675781 8.746094 32.3125 8.164062 30.546875 8.792969 M 21.535156 12.59375 C 21.617188 12.339844 21.785156 12.074219 21.757812 11.832031 C 21.648438 10.824219 21.285156 9.933594 20.457031 9.269531 C 19.792969 8.738281 19.015625 8.496094 18.207031 8.519531 C 17.1875 8.546875 16.320312 9.015625 15.636719 9.800781 C 15.089844 10.429688 14.914062 11.203125 14.863281 11.992188 C 14.835938 12.421875 15.390625 12.890625 15.773438 12.890625 C 16.234375 12.886719 16.695312 12.367188 16.691406 11.792969 C 16.6875 11.039062 17.535156 10.335938 18.125 10.34375 C 19.140625 10.355469 19.867188 10.871094 19.917969 11.714844 C 19.972656 12.589844 20.59375 13.199219 21.535156 12.59375 Z M 21.535156 12.59375 "/>
<path style=" stroke:none;fill-rule:nonzero;fill:rgb(0%,0%,0%);fill-opacity:1;" d="M 30.175781 34.09375 C 30.066406 35.566406 30.589844 36.753906 31.585938 37.808594 C 31.160156 38.230469 30.742188 38.632812 30.335938 39.050781 C 28.78125 40.660156 27.226562 42.277344 25.671875 43.890625 C 25.355469 44.222656 24.855469 44.242188 24.519531 43.898438 C 22.6875 42.035156 20.867188 40.164062 19.042969 38.296875 C 18.894531 38.144531 18.75 37.992188 18.59375 37.824219 C 19.355469 37.082031 19.875 36.160156 20.007812 35.078125 C 20.152344 33.9375 19.925781 32.851562 19.308594 31.867188 C 18.277344 30.234375 16.335938 29.386719 14.253906 29.84375 C 14.300781 28.988281 14.578125 28.210938 15.085938 27.558594 C 16.035156 26.351562 17.191406 25.410156 18.710938 24.976562 C 20.171875 24.558594 21.433594 24.917969 22.542969 25.914062 C 23.324219 26.613281 23.851562 27.492188 24.332031 28.417969 C 24.441406 28.636719 24.746094 28.8125 24.996094 28.890625 C 25.335938 28.996094 25.632812 28.84375 25.832031 28.515625 C 26.300781 27.75 26.722656 26.941406 27.273438 26.234375 C 28.042969 25.25 29.601562 24.601562 30.988281 24.859375 C 32.488281 25.136719 33.644531 25.953125 34.660156 27.007812 C 35.382812 27.761719 35.691406 28.71875 35.859375 29.789062 C 33.964844 29.476562 32.414062 30.042969 31.203125 31.453125 C 30.570312 32.1875 30.191406 33.054688 30.175781 34.09375 M 19.082031 28.417969 C 20.144531 27.984375 20.261719 28.035156 20.800781 29.109375 C 20.84375 29.195312 20.863281 29.304688 20.929688 29.359375 C 21.121094 29.515625 21.320312 29.738281 21.539062 29.769531 C 22.273438 29.863281 22.777344 29.117188 22.464844 28.433594 C 22.359375 28.203125 22.269531 27.960938 22.128906 27.753906 C 21.273438 26.488281 20.171875 25.875 18.632812 26.765625 C 18.035156 27.113281 17.984375 27.847656 18.527344 28.230469 C 18.660156 28.324219 18.84375 28.355469 19.082031 28.417969 Z M 19.082031 28.417969 "/>
<path style=" stroke:none;fill-rule:nonzero;fill:rgb(0%,0%,0%);fill-opacity:1;" d="M 10.742188 44.023438 C 10.660156 41.589844 12.230469 39.6875 14.640625 39.167969 C 16.089844 38.855469 18.171875 39.75 19.046875 40.996094 C 19.945312 42.28125 20.203125 43.675781 19.714844 45.152344 C 19.171875 46.789062 18.019531 47.824219 16.332031 48.242188 C 14.476562 48.699219 12.265625 47.710938 11.402344 46.070312 C 11.0625 45.421875 10.839844 44.777344 10.742188 44.023438 M 14.15625 43.367188 C 14.167969 42.640625 14.671875 42.121094 15.402344 42.089844 C 15.890625 42.066406 16.214844 41.707031 16.210938 41.191406 C 16.207031 40.640625 15.933594 40.34375 15.410156 40.332031 C 14.398438 40.3125 13.597656 40.738281 12.953125 41.492188 C 12.5 42.019531 12.402344 42.683594 12.320312 43.335938 C 12.273438 43.707031 12.789062 44.1875 13.175781 44.234375 C 13.535156 44.277344 13.953125 43.929688 14.15625 43.367188 Z M 14.15625 43.367188 "/>
<path style=" stroke:none;fill-rule:nonzero;fill:rgb(0%,0%,0%);fill-opacity:1;" d="M 31.8125 40.304688 C 33.394531 38.847656 35.960938 38.78125 37.613281 40.097656 C 38.914062 41.132812 39.511719 42.484375 39.441406 44.109375 C 39.390625 45.246094 38.875 46.230469 38.058594 47.015625 C 37.136719 47.90625 36.03125 48.375 34.707031 48.351562 C 33.234375 48.324219 32.070312 47.671875 31.214844 46.566406 C 30.03125 45.039062 29.929688 43.324219 30.78125 41.597656 C 31.011719 41.125 31.449219 40.75 31.8125 40.304688 M 32.714844 41.652344 C 32.105469 42.253906 31.820312 42.988281 31.835938 43.84375 C 31.84375 44.25 32.261719 44.625 32.691406 44.628906 C 33.191406 44.632812 33.558594 44.3125 33.597656 43.863281 C 33.613281 43.679688 33.644531 43.484375 33.714844 43.3125 C 33.949219 42.707031 34.488281 42.585938 35.050781 42.472656 C 35.46875 42.390625 35.726562 42.074219 35.726562 41.660156 C 35.730469 41.273438 35.601562 40.902344 35.125 40.8125 C 34.1875 40.628906 33.429688 40.96875 32.714844 41.652344 Z M 32.714844 41.652344 "/>
<path style=" stroke:none;fill-rule:nonzero;fill:rgb(0%,0%,0%);fill-opacity:1;" d="M 13.75 36.847656 C 12.226562 35.726562 11.894531 33.785156 13.277344 32.441406 C 14.058594 31.683594 15.203125 31.402344 16.339844 31.757812 C 17.441406 32.105469 18.085938 32.929688 18.242188 34.035156 C 18.394531 35.128906 17.972656 36.046875 17.058594 36.726562 C 15.988281 37.527344 14.898438 37.5 13.75 36.847656 Z M 13.75 36.847656 "/>
<path style=" stroke:none;fill-rule:nonzero;fill:rgb(0%,0%,0%);fill-opacity:1;" d="M 35.308594 37.304688 C 34.296875 37.378906 33.457031 37.144531 32.742188 36.421875 C 31.875 35.542969 31.789062 33.824219 32.660156 32.808594 C 33.601562 31.714844 35.117188 31.460938 36.375 32.089844 C 38.089844 32.949219 38.152344 35.351562 36.832031 36.503906 C 36.421875 36.863281 35.851562 37.042969 35.308594 37.304688 Z M 35.308594 37.304688 "/>
<path style=" stroke:none;fill-rule:nonzero;fill:rgb(0%,0%,0%);fill-opacity:1;" d="M 9.082031 6.484375 C 9.289062 5.410156 9.753906 4.523438 10.566406 3.84375 C 11.4375 3.117188 12.417969 2.664062 13.578125 2.9375 C 14.222656 3.085938 14.839844 3.347656 15.4375 3.546875 C 14.488281 4.742188 13.535156 5.785156 12.765625 6.949219 C 12.011719 8.085938 11.449219 9.347656 10.796875 10.566406 C 9.980469 10.0625 9.421875 9.230469 9.195312 8.207031 C 9.074219 7.664062 9.113281 7.089844 9.082031 6.484375 Z M 9.082031 6.484375 "/>
<path style=" stroke:none;fill-rule:nonzero;fill:rgb(0%,0%,0%);fill-opacity:1;" d="M 41.113281 6.941406 C 41.167969 8.484375 40.53125 9.644531 39.285156 10.621094 C 38.355469 7.878906 36.875 5.542969 34.675781 3.6875 C 38.074219 1.339844 41.125 4.21875 41.113281 6.941406 Z M 41.113281 6.941406 "/>
<path style=" stroke:none;fill-rule:nonzero;fill:rgb(0%,0%,0%);fill-opacity:1;" d="M 25.003906 47.558594 C 23.617188 47.398438 22.28125 47.242188 20.984375 47.085938 C 21.296875 45.980469 21.570312 44.992188 21.878906 43.894531 C 22.226562 44.28125 22.574219 44.660156 22.921875 45.039062 C 24.027344 46.257812 25.566406 46.253906 26.789062 45.402344 C 27.265625 45.070312 27.640625 44.585938 28.054688 44.164062 C 28.152344 44.0625 28.214844 43.929688 28.355469 43.714844 C 28.460938 44.410156 28.5 44.933594 28.632812 45.429688 C 28.761719 45.929688 28.984375 46.40625 29.179688 46.929688 C 27.851562 47.359375 26.46875 47.566406 25.003906 47.558594 Z M 25.003906 47.558594 "/>
<path style=" stroke:none;fill-rule:nonzero;fill:rgb(100%,58.823529%,63.921569%);fill-opacity:1;" d="M 27.925781 16.679688 C 27.664062 17.214844 27.769531 17.886719 27.214844 18.238281 C 26.851562 18.46875 26.464844 18.664062 26.085938 18.875 C 26.042969 18.839844 25.996094 18.804688 25.953125 18.769531 C 25.988281 19.097656 26.027344 19.425781 26.050781 19.757812 C 26.085938 20.257812 26.476562 20.398438 26.84375 20.382812 C 27.175781 20.367188 27.558594 20.238281 27.554688 19.726562 C 27.554688 19.507812 27.644531 19.253906 27.769531 19.070312 C 28.011719 18.71875 28.585938 18.632812 28.976562 18.839844 C 29.316406 19.019531 29.472656 19.628906 29.347656 20.121094 C 28.835938 22.140625 26.6875 22.757812 25.097656 21.585938 C 24.117188 22.265625 23.109375 22.394531 22.023438 21.792969 C 21.140625 21.304688 20.507812 19.746094 20.953125 19.101562 C 21.253906 18.660156 21.652344 18.699219 22.007812 18.78125 C 22.226562 18.835938 22.40625 19.167969 22.550781 19.410156 C 22.714844 19.675781 22.738281 20.097656 22.960938 20.238281 C 23.523438 20.59375 24.128906 20.320312 24.214844 19.539062 C 24.242188 19.300781 24.21875 19.054688 24.21875 18.785156 C 23.625 18.738281 23.171875 18.457031 22.769531 18.042969 C 22.371094 17.632812 22.167969 17.164062 22.164062 16.589844 C 22.160156 16.125 22.027344 15.648438 22.105469 15.203125 C 22.277344 14.203125 23.019531 13.609375 24.085938 13.585938 C 24.886719 13.566406 25.695312 13.644531 26.5 13.671875 C 27.414062 13.703125 28.367188 15.015625 28.042969 15.980469 C 27.972656 16.1875 27.964844 16.417969 27.925781 16.679688 M 23.824219 15.730469 C 23.917969 16.125 23.953125 16.550781 24.128906 16.902344 C 24.191406 17.023438 24.601562 16.980469 24.855469 16.988281 C 25.175781 17 25.503906 17.007812 25.824219 16.984375 C 25.941406 16.972656 26.117188 16.890625 26.15625 16.792969 C 26.261719 16.535156 26.324219 16.257812 26.375 15.980469 C 26.433594 15.679688 26.40625 15.421875 25.988281 15.425781 C 25.390625 15.4375 24.789062 15.417969 24.191406 15.441406 C 24.070312 15.445312 23.949219 15.578125 23.824219 15.730469 Z M 23.824219 15.730469 "/>
<path style=" stroke:none;fill-rule:nonzero;fill:rgb(100%,58.823529%,63.921569%);fill-opacity:1;" d="M 30.585938 8.785156 C 32.3125 8.164062 33.675781 8.746094 34.667969 9.929688 C 35.144531 10.5 35.296875 11.238281 35.335938 11.964844 C 35.363281 12.414062 34.800781 12.910156 34.402344 12.886719 C 33.964844 12.867188 33.515625 12.378906 33.5 11.867188 C 33.480469 11.121094 33.078125 10.644531 32.421875 10.414062 C 31.8125 10.203125 31.152344 10.296875 30.738281 10.777344 C 30.433594 11.132812 30.332031 11.675781 30.183594 12.148438 C 30.035156 12.617188 29.617188 12.945312 29.21875 12.859375 C 28.5625 12.714844 28.417969 12.210938 28.46875 11.710938 C 28.5625 10.738281 28.945312 9.929688 29.703125 9.316406 C 29.960938 9.109375 30.265625 8.964844 30.585938 8.785156 Z M 30.585938 8.785156 "/>
<path style=" stroke:none;fill-rule:nonzero;fill:rgb(100%,58.823529%,63.921569%);fill-opacity:1;" d="M 21.507812 12.621094 C 20.59375 13.199219 19.972656 12.589844 19.917969 11.714844 C 19.867188 10.871094 19.140625 10.355469 18.125 10.34375 C 17.535156 10.335938 16.6875 11.039062 16.691406 11.792969 C 16.695312 12.367188 16.234375 12.886719 15.773438 12.890625 C 15.390625 12.890625 14.835938 12.421875 14.863281 11.992188 C 14.914062 11.203125 15.089844 10.429688 15.636719 9.800781 C 16.320312 9.015625 17.1875 8.546875 18.207031 8.519531 C 19.015625 8.496094 19.792969 8.738281 20.457031 9.269531 C 21.285156 9.933594 21.648438 10.824219 21.757812 11.832031 C 21.785156 12.074219 21.617188 12.339844 21.507812 12.621094 Z M 21.507812 12.621094 "/>
<path style=" stroke:none;fill-rule:nonzero;fill:rgb(100%,58.823529%,63.921569%);fill-opacity:1;" d="M 19.042969 28.417969 C 18.84375 28.355469 18.660156 28.324219 18.527344 28.230469 C 17.984375 27.847656 18.035156 27.113281 18.632812 26.765625 C 20.171875 25.875 21.273438 26.488281 22.128906 27.753906 C 22.269531 27.960938 22.359375 28.203125 22.464844 28.433594 C 22.777344 29.117188 22.273438 29.863281 21.539062 29.769531 C 21.320312 29.738281 21.121094 29.515625 20.929688 29.359375 C 20.863281 29.304688 20.84375 29.195312 20.800781 29.109375 C 20.261719 28.035156 20.144531 27.984375 19.042969 28.417969 Z M 19.042969 28.417969 "/>
<path style=" stroke:none;fill-rule:nonzero;fill:rgb(100%,58.823529%,63.921569%);fill-opacity:1;" d="M 14.140625 43.40625 C 13.953125 43.929688 13.535156 44.277344 13.175781 44.234375 C 12.789062 44.1875 12.273438 43.707031 12.320312 43.335938 C 12.402344 42.683594 12.5 42.019531 12.953125 41.492188 C 13.597656 40.738281 14.398438 40.3125 15.410156 40.332031 C 15.933594 40.34375 16.207031 40.640625 16.210938 41.191406 C 16.214844 41.707031 15.890625 42.066406 15.402344 42.089844 C 14.671875 42.121094 14.167969 42.640625 14.140625 43.40625 Z M 14.140625 43.40625 "/>
<path style=" stroke:none;fill-rule:nonzero;fill:rgb(100%,58.823529%,63.921569%);fill-opacity:1;" d="M 32.738281 41.625 C 33.429688 40.96875 34.1875 40.628906 35.125 40.8125 C 35.601562 40.902344 35.730469 41.273438 35.726562 41.660156 C 35.726562 42.074219 35.46875 42.390625 35.050781 42.472656 C 34.488281 42.585938 33.949219 42.707031 33.714844 43.3125 C 33.644531 43.484375 33.613281 43.679688 33.597656 43.863281 C 33.558594 44.3125 33.191406 44.632812 32.691406 44.628906 C 32.261719 44.625 31.84375 44.25 31.835938 43.84375 C 31.820312 42.988281 32.105469 42.253906 32.738281 41.625 Z M 32.738281 41.625 "/>
<path style=" stroke:none;fill-rule:nonzero;fill:rgb(0%,0%,0%);fill-opacity:1;" d="M 23.828125 15.691406 C 23.949219 15.578125 24.070312 15.445312 24.191406 15.441406 C 24.789062 15.417969 25.390625 15.4375 25.988281 15.425781 C 26.40625 15.421875 26.433594 15.679688 26.375 15.980469 C 26.324219 16.257812 26.261719 16.535156 26.15625 16.792969 C 26.117188 16.890625 25.941406 16.972656 25.824219 16.984375 C 25.503906 17.007812 25.175781 17 24.855469 16.988281 C 24.601562 16.980469 24.191406 17.023438 24.128906 16.902344 C 23.953125 16.550781 23.917969 16.125 23.828125 15.691406 Z M 23.828125 15.691406 "/>
</g>
</svg>
