<?xml version="1.0" encoding="UTF-8"?>
<svg xmlns="http://www.w3.org/2000/svg" xmlns:xlink="http://www.w3.org/1999/xlink" width="100px" height="100px" viewBox="0 0 100 100" version="1.1">
<g id="surface1">
<path style=" stroke:none;fill-rule:nonzero;fill:rgb(0%,0%,0%);fill-opacity:1;" d="M 30.121094 21.058594 C 29.441406 21.941406 28.039062 25.480469 26.71875 29.660156 C 23.519531 39.738281 17.679688 61.058594 15.300781 71.359375 C 13.941406 77.261719 14.539062 79.398438 17.5 79.398438 C 19.460938 79.398438 21.78125 78.378906 29.378906 74.140625 C 36.398438 70.238281 39.859375 68.78125 42.800781 68.441406 C 44.121094 68.300781 44.578125 67.960938 44.320312 67.300781 C 44.199219 66.980469 44.019531 66.960938 42.679688 67.058594 C 39.660156 67.320312 35.898438 68.941406 27.859375 73.421875 C 20.699219 77.421875 18.160156 78.480469 16.941406 78.019531 C 15.441406 77.441406 15.621094 75.679688 18.261719 65.199219 C 20.578125 56.058594 23.261719 46.101562 25.421875 38.699219 C 26.980469 33.398438 29.820312 24.71875 30.28125 23.859375 L 30.578125 23.300781 L 30.601562 24.21875 C 30.601562 24.878906 30.699219 25.199219 30.921875 25.28125 C 31.339844 25.441406 31.320312 25.441406 31.679688 25.078125 C 31.921875 24.839844 32 24.339844 32 22.980469 C 32 21.460938 31.941406 21.140625 31.601562 20.800781 C 31.039062 20.238281 30.699219 20.300781 30.121094 21.058594 Z M 30.121094 21.058594 "/>
<path style=" stroke:none;fill-rule:nonzero;fill:rgb(0%,0%,0%);fill-opacity:1;" d="M 61.039062 23.441406 C 60.800781 23.558594 60.28125 24.140625 59.878906 24.738281 C 58.039062 27.519531 56.300781 33.199219 53.101562 46.980469 C 52.019531 51.660156 51.941406 51.921875 51.101562 53.078125 C 48.820312 56.261719 45.921875 59.339844 43.839844 60.78125 C 42.238281 61.878906 40.820312 61.71875 40.179688 60.320312 C 39.71875 59.28125 39.679688 57.101562 40.101562 55.238281 C 40.398438 53.921875 40.480469 53.820312 42.480469 51.800781 C 44.738281 49.5 45.480469 48.480469 45.839844 47.121094 C 46.261719 45.539062 45.261719 44.738281 43.820312 45.5 C 42.28125 46.28125 40.140625 49.921875 39.101562 53.5 C 38.480469 55.640625 38.21875 58.839844 38.578125 60.160156 C 39.078125 61.941406 40.820312 63.179688 42.421875 62.878906 C 44.519531 62.480469 47.738281 59.738281 50.898438 55.699219 C 51.199219 55.320312 51.199219 55.339844 51.078125 55.898438 C 51.019531 56.21875 50.878906 56.820312 50.78125 57.199219 C 49.519531 62.460938 47 75.960938 47 77.601562 C 47 79.539062 47.859375 79.738281 48.738281 78 C 49.160156 77.179688 49.160156 77.101562 48.859375 76.601562 C 48.578125 76.101562 48.558594 75.859375 48.78125 74.480469 C 49.601562 69.238281 52.898438 53.679688 55.121094 44.621094 C 56.160156 40.339844 56.261719 40.039062 57.378906 38.121094 C 60.519531 32.71875 62.359375 28.21875 62.539062 25.480469 C 62.640625 23.941406 62.621094 23.839844 62.179688 23.519531 C 61.640625 23.160156 61.660156 23.160156 61.039062 23.441406 Z M 60.519531 28.121094 C 59.800781 30.300781 57.519531 35.238281 57.738281 34.101562 C 58.199219 31.699219 60.960938 24.859375 61.140625 25.621094 C 61.179688 25.800781 60.898438 26.921875 60.519531 28.121094 Z M 43.71875 48.238281 C 43.339844 48.820312 42.738281 49.558594 42.398438 49.898438 L 41.761719 50.5 L 42.28125 49.441406 C 42.878906 48.28125 44.238281 46.640625 44.359375 46.980469 C 44.398438 47.101562 44.121094 47.660156 43.71875 48.238281 Z M 43.71875 48.238281 "/>
<path style=" stroke:none;fill-rule:nonzero;fill:rgb(0%,0%,0%);fill-opacity:1;" d="M 75.640625 31.578125 C 74.019531 32.140625 72.5 33.28125 71.601562 34.640625 C 70.621094 36.121094 70.199219 37.480469 70.199219 39.179688 C 70.199219 40.761719 70.359375 41.398438 70.71875 41.398438 C 70.921875 41.398438 70.960938 41.179688 70.859375 40.460938 L 70.738281 39.519531 L 71.261719 39.859375 C 71.878906 40.261719 72.199219 40.300781 72.199219 39.941406 C 72.199219 39.820312 71.878906 39.480469 71.480469 39.238281 C 70.78125 38.78125 70.761719 38.71875 70.878906 37.941406 C 70.960938 37.480469 71.058594 37.078125 71.101562 37.039062 C 71.140625 36.980469 71.640625 37.28125 72.199219 37.699219 C 72.980469 38.28125 73.28125 38.398438 73.460938 38.21875 C 73.621094 38.058594 73.621094 37.941406 73.480469 37.839844 C 72.238281 37 71.398438 36.359375 71.398438 36.28125 C 71.398438 36.039062 72.019531 35 72.179688 35 C 72.261719 35 72.839844 35.359375 73.460938 35.800781 C 74.058594 36.238281 74.660156 36.601562 74.78125 36.601562 C 75.320312 36.601562 74.898438 36 73.78125 35.21875 L 72.558594 34.359375 L 73.160156 33.761719 L 73.761719 33.160156 L 74.980469 34.019531 C 75.859375 34.640625 76.261719 34.820312 76.421875 34.660156 C 76.578125 34.5 76.320312 34.21875 75.5 33.640625 L 74.359375 32.820312 L 75.058594 32.480469 C 75.738281 32.160156 75.761719 32.160156 76.660156 32.78125 C 77.699219 33.480469 77.800781 33.519531 77.800781 33.101562 C 77.800781 32.941406 77.578125 32.660156 77.300781 32.480469 C 76.539062 31.980469 76.679688 31.820312 77.941406 31.761719 C 78.621094 31.71875 79.101562 31.601562 79.160156 31.441406 C 79.28125 31.058594 76.878906 31.140625 75.640625 31.578125 Z M 75.640625 31.578125 "/>
<path style=" stroke:none;fill-rule:nonzero;fill:rgb(0%,0%,0%);fill-opacity:1;" d="M 77.199219 35.878906 C 75.398438 38.238281 73.878906 40.261719 73.839844 40.378906 C 73.800781 40.5 73.898438 40.601562 74.078125 40.601562 C 74.238281 40.601562 75.839844 38.699219 77.621094 36.398438 C 79.398438 34.078125 80.941406 32.199219 81.039062 32.199219 C 81.140625 32.199219 81.480469 32.339844 81.820312 32.519531 L 82.421875 32.820312 L 81.460938 34.058594 C 77.921875 38.578125 77.160156 39.640625 77.339844 39.820312 C 77.621094 40.101562 77.71875 39.980469 80.519531 36.320312 L 82.898438 33.199219 L 84.058594 34.359375 L 82.519531 36.359375 C 81.679688 37.441406 81 38.460938 81 38.578125 C 81 39.101562 81.558594 38.601562 82.898438 36.839844 C 83.679688 35.839844 84.359375 35.019531 84.460938 35.019531 C 84.539062 35 84.761719 35.320312 84.941406 35.699219 C 85.261719 36.378906 85.261719 36.398438 84.738281 37.140625 C 84.359375 37.660156 84.261719 37.941406 84.421875 38.101562 C 84.558594 38.238281 84.761719 38.140625 85.058594 37.761719 C 85.5 37.199219 85.5 37.199219 85.78125 37.621094 C 86.199219 38.320312 86.441406 37.78125 86.121094 36.859375 C 85.378906 34.78125 84.378906 33.441406 82.71875 32.359375 C 80.78125 31.121094 80.960938 31 77.199219 35.878906 Z M 77.199219 35.878906 "/>
<path style=" stroke:none;fill-rule:nonzero;fill:rgb(0%,0%,0%);fill-opacity:1;" d="M 78.320312 40.820312 C 74.359375 41.800781 71.078125 42.660156 71.019531 42.699219 C 70.859375 42.878906 71.460938 43.820312 72.378906 44.839844 C 74.300781 46.980469 77.820312 47.921875 80.71875 47.039062 C 82.699219 46.441406 87.539062 45.261719 88.621094 45.101562 C 90.398438 44.839844 92 45.660156 92 46.820312 C 92 48.78125 89.058594 49.980469 87.101562 48.820312 C 86.398438 48.421875 86 48.398438 86 48.800781 C 86 49.058594 87.378906 49.738281 88.238281 49.898438 C 89.320312 50.101562 90.960938 49.558594 91.761719 48.738281 C 93.058594 47.398438 92.980469 45.980469 91.519531 45.039062 C 90.800781 44.578125 90.5 44.5 89.199219 44.519531 C 87.941406 44.539062 86.039062 44.898438 83.898438 45.539062 C 83.640625 45.621094 83.761719 45.378906 84.359375 44.699219 C 85.5 43.398438 86.238281 41.78125 86.359375 40.261719 C 86.460938 39.039062 86.441406 39 85.980469 39.019531 C 85.71875 39.039062 82.261719 39.839844 78.320312 40.820312 Z M 85.71875 40.660156 L 85.601562 41.320312 L 79.339844 42.859375 C 75.921875 43.71875 73.019531 44.398438 72.941406 44.398438 C 72.71875 44.398438 72.019531 43.558594 72 43.300781 C 72 43.039062 85.679688 39.621094 85.78125 39.839844 C 85.800781 39.941406 85.78125 40.320312 85.71875 40.660156 Z M 84.738281 43.179688 L 84.238281 43.941406 L 79.859375 45 C 77.460938 45.578125 75.339844 46.058594 75.140625 46.039062 C 74.761719 46.019531 73.601562 45.261719 73.601562 45.039062 C 73.601562 44.820312 85.101562 42.058594 85.160156 42.238281 C 85.199219 42.339844 85.019531 42.761719 84.738281 43.179688 Z M 83.101562 45 C 82.578125 45.839844 79.960938 46.800781 78.21875 46.800781 C 76.019531 46.800781 76.460938 46.480469 79.820312 45.640625 C 81.621094 45.199219 83.121094 44.839844 83.160156 44.820312 C 83.199219 44.820312 83.160156 44.898438 83.101562 45 Z M 83.101562 45 "/>
<path style=" stroke:none;fill-rule:nonzero;fill:rgb(0%,0%,0%);fill-opacity:1;" d="M 58.800781 47.398438 C 58.199219 48 58.359375 48.480469 59.140625 48.558594 C 59.859375 48.640625 60.660156 48 60.558594 47.441406 C 60.460938 46.898438 59.320312 46.878906 58.800781 47.398438 Z M 58.800781 47.398438 "/>
<path style=" stroke:none;fill-rule:nonzero;fill:rgb(0%,0%,0%);fill-opacity:1;" d="M 69.320312 48.441406 C 69.160156 48.699219 68.839844 49.480469 68.578125 50.199219 C 68.339844 50.921875 68.019531 51.601562 67.898438 51.699219 C 67.761719 51.820312 66.980469 52.800781 66.160156 53.898438 C 63.898438 56.898438 61 59.558594 59.601562 59.898438 C 59.21875 59.980469 58.980469 59.898438 58.699219 59.601562 C 58.21875 59.058594 58.21875 56.761719 58.71875 54.5 C 59.179688 52.421875 59.179688 51.800781 58.761719 51.519531 C 58.480469 51.359375 58.339844 51.378906 58.101562 51.621094 C 57.640625 52.078125 56.960938 55.621094 56.941406 57.601562 C 56.921875 59.761719 57.28125 60.679688 58.320312 61.121094 C 59.839844 61.761719 61.539062 60.878906 64.578125 57.839844 C 65.839844 56.578125 66.800781 55.71875 66.71875 55.898438 C 66.460938 56.578125 65.820312 59.339844 65.601562 60.640625 C 65.359375 62.21875 65.480469 62.921875 66.019531 63.058594 C 66.621094 63.21875 67.078125 62.679688 68.300781 60.398438 C 69.558594 58.078125 72.421875 53.398438 72.601562 53.398438 C 72.660156 53.398438 72.660156 53.839844 72.640625 54.378906 C 72.539062 55.640625 72.921875 58.058594 73.320312 58.820312 C 73.761719 59.679688 74.398438 59.921875 75.160156 59.519531 C 75.660156 59.261719 76.101562 58.558594 77.421875 55.960938 L 79.078125 52.699219 L 79.238281 54 C 79.820312 58.5 82.699219 59.140625 86.621094 55.660156 C 88.28125 54.21875 89.398438 52.941406 89.398438 52.558594 C 89.398438 52.378906 89.28125 52.140625 89.121094 52.019531 C 88.71875 51.679688 88.378906 51.898438 86.539062 53.761719 C 84.140625 56.199219 82.199219 57.039062 81.378906 56.019531 C 80.859375 55.398438 80.601562 54.320312 80.601562 52.878906 C 80.601562 51.121094 80.300781 50.398438 79.601562 50.398438 C 78.78125 50.398438 78.199219 51.199219 76.359375 54.941406 C 75.480469 56.71875 74.679688 58.199219 74.601562 58.199219 C 74.28125 58.199219 74.121094 56.839844 74.121094 53.960938 C 74.101562 50.800781 74 50.460938 73.121094 50.679688 C 72.761719 50.761719 72.121094 51.558594 70.738281 53.660156 C 69.699219 55.21875 68.558594 57.019531 68.199219 57.660156 C 67.859375 58.300781 67.519531 58.78125 67.480469 58.738281 C 67.359375 58.621094 68.660156 54.160156 69.5 51.898438 C 70.601562 48.921875 70.660156 48.660156 70.539062 48.320312 C 70.359375 47.859375 69.660156 47.921875 69.320312 48.441406 Z M 69.320312 48.441406 "/>
<path style=" stroke:none;fill-rule:nonzero;fill:rgb(0%,0%,0%);fill-opacity:1;" d="M 76.820312 65.859375 C 76.480469 66.199219 76.558594 66.300781 77.179688 66.320312 C 77.578125 66.339844 77.738281 66.261719 77.660156 66.078125 C 77.519531 65.71875 77.078125 65.601562 76.820312 65.859375 Z M 76.820312 65.859375 "/>
<path style=" stroke:none;fill-rule:nonzero;fill:rgb(0%,0%,0%);fill-opacity:1;" d="M 62.699219 66.28125 C 62.261719 66.71875 61.800781 67.898438 61.800781 68.660156 C 61.800781 69.339844 62.378906 70.398438 62.878906 70.621094 C 63.28125 70.820312 63.480469 70.800781 63.898438 70.519531 C 64.679688 70 64.558594 69.578125 63.660156 69.640625 L 62.898438 69.699219 L 62.839844 68.761719 C 62.78125 67.820312 63.039062 67 63.398438 67 C 63.5 67 63.601562 67.199219 63.640625 67.441406 C 63.71875 68 64.339844 68.160156 64.441406 67.660156 C 64.558594 67.160156 64.261719 66.160156 63.960938 65.960938 C 63.519531 65.699219 63.199219 65.78125 62.699219 66.28125 Z M 62.699219 66.28125 "/>
<path style=" stroke:none;fill-rule:nonzero;fill:rgb(0%,0%,0%);fill-opacity:1;" d="M 73.238281 66.121094 C 72.960938 66.660156 72.71875 69.238281 72.878906 70.101562 C 73.078125 71.101562 73.460938 70.878906 73.640625 69.699219 C 73.859375 68.160156 74.601562 67.980469 74.601562 69.460938 C 74.601562 70.5 74.898438 71.058594 75.199219 70.601562 C 75.519531 70.101562 75.441406 68.078125 75.078125 67.71875 C 74.71875 67.339844 74.679688 67.339844 74.179688 67.601562 C 73.839844 67.800781 73.800781 67.738281 73.800781 67.058594 C 73.800781 66.058594 73.519531 65.601562 73.238281 66.121094 Z M 73.238281 66.121094 "/>
<path style=" stroke:none;fill-rule:nonzero;fill:rgb(0%,0%,0%);fill-opacity:1;" d="M 76.558594 67 C 76.101562 67.28125 75.738281 68.5 75.878906 69.320312 C 76.058594 70.28125 76.78125 70.71875 77.539062 70.359375 C 77.859375 70.21875 78.121094 69.898438 78.160156 69.640625 C 78.238281 69.140625 78.140625 69.101562 77.621094 69.441406 C 77.421875 69.558594 77.078125 69.601562 76.878906 69.519531 C 76.539062 69.378906 76.578125 69.339844 77.121094 69.101562 C 78.058594 68.71875 78.359375 67.398438 77.621094 67 C 77.140625 66.761719 77 66.761719 76.558594 67 Z M 77.398438 67.898438 C 77.398438 68.21875 76.859375 68.539062 76.660156 68.320312 C 76.519531 68.179688 76.980469 67.601562 77.21875 67.601562 C 77.320312 67.601562 77.398438 67.738281 77.398438 67.898438 Z M 77.398438 67.898438 "/>
<path style=" stroke:none;fill-rule:nonzero;fill:rgb(0%,0%,0%);fill-opacity:1;" d="M 68 67.398438 C 66.820312 68.578125 67.660156 71.320312 69 70.601562 C 69.859375 70.140625 70.078125 68.398438 69.378906 67.519531 C 68.898438 66.898438 68.539062 66.859375 68 67.398438 Z M 68.960938 68.78125 C 69 69.140625 68.980469 69.578125 68.921875 69.738281 C 68.738281 70.179688 68.199219 69.679688 68.199219 69.101562 C 68.199219 67.898438 68.859375 67.640625 68.960938 68.78125 Z M 68.960938 68.78125 "/>
<path style=" stroke:none;fill-rule:nonzero;fill:rgb(0%,0%,0%);fill-opacity:1;" d="M 70.859375 67.300781 C 69.921875 67.960938 69.839844 69.960938 70.71875 70.539062 C 71.160156 70.820312 71.238281 70.820312 71.699219 70.519531 C 72.21875 70.179688 72.378906 69.601562 71.941406 69.601562 C 71.800781 69.601562 71.578125 69.699219 71.480469 69.800781 C 71.101562 70.179688 70.71875 69.480469 70.921875 68.761719 C 71.121094 68.101562 71.601562 67.761719 71.601562 68.28125 C 71.601562 68.460938 71.738281 68.601562 71.898438 68.601562 C 72.359375 68.601562 72.300781 67.460938 71.820312 67.199219 C 71.320312 66.941406 71.378906 66.941406 70.859375 67.300781 Z M 70.859375 67.300781 "/>
<path style=" stroke:none;fill-rule:nonzero;fill:rgb(0%,0%,0%);fill-opacity:1;" d="M 65.019531 67.578125 C 64.738281 68.078125 64.878906 70.359375 65.199219 70.679688 C 65.421875 70.898438 65.800781 70.019531 65.800781 69.300781 C 65.800781 68.480469 66.019531 68.199219 66.640625 68.199219 C 67.101562 68.199219 67.21875 68.121094 67.160156 67.839844 C 67.078125 67.441406 66.261719 67.261719 65.941406 67.578125 C 65.800781 67.71875 65.660156 67.679688 65.5 67.460938 C 65.28125 67.160156 65.21875 67.179688 65.019531 67.578125 Z M 65.019531 67.578125 "/>
</g>
</svg>
